<svg xmlns="http://www.w3.org/2000/svg" xmlns:xlink="http://www.w3.org/1999/xlink" width="179.753" height="85.874" viewBox="0 0 179.753 85.874">
  <defs>
    <clipPath id="clip-path">
      <rect id="Rectangle_51" data-name="Rectangle 51" width="179.753" height="85.874" fill="#393c46"/>
    </clipPath>
  </defs>
  <g id="Group_132" data-name="Group 132" transform="translate(0)">
    <g id="Group_131" data-name="Group 131" transform="translate(0 0)" clip-path="url(#clip-path)">
      <path id="Path_69" data-name="Path 69" d="M155.626,37.343c-3.044.81-11.083,1.259-11.083,1.259l-.989,3.658a40.218,40.218,0,0,1,6.894-.06s.937-.09,1.041,1.2a23.357,23.357,0,0,1-.078,2.7,1.24,1.24,0,0,1-1.041,1.02c-1.119.21-8.663.6-8.663.6l-1.223,4.737s-.442,1.08.572.78c.936-.3,8.845-2.039,9.886-1.8a3.324,3.324,0,0,1,1.977,3.6c-.416,1.889-8.325,7.706-13.112,7.316,0,0-2.524.18-4.631-3.748-2.029-3.748.7-10.794.7-10.794s-1.223-3.3-.312-4.5a3.6,3.6,0,0,1,2.081-.66l1.951-4.618a4.217,4.217,0,0,1-3.512-1.709c-1.2-1.8-1.3-2.579-.364-3.059.989-.6,10.146-2.489,16.442-2.249,0,0,2.212-.3,4.163,4.108,0,0,.885,1.8-.676,2.219M131.9,55.094c-.78,2.189-2.94,4.5-5.541,3.088-2.654-1.439-6.842-11.274-6.842-11.274s-1.561-3.658-1.873-3.538c0,0-.338-.72-.52,3.3-.26,3.988.052,11.754-1.379,12.983-1.3,1.2-2.862.689-3.746-.72-.729-1.409-1.04-4.8-.624-10.7.468-5.907,1.639-12.2,3.122-14.153,1.561-1.979,2.81-.54,3.278,0,0,0,2,2.1,5.385,8.306l.572,1.139s3.07,5.907,3.382,5.877c0,0,.26.3.468.06.312-.09.208-2.009.208-2.009a114.663,114.663,0,0,0-3.434-17.181,6.136,6.136,0,0,1-.13-2.7c.26-1.2,1.379-.6,1.379-.6s4.319,2.4,6.426,10.494a34.14,34.14,0,0,1-.1,17.631m-21.2-20.779c-.416.84-.6,2.009-2.394,2.339,0,0-17.431,1.409-18.289,2.818,0,0-.572.84.364,1.05a64.791,64.791,0,0,0,6.816.959c2.029,0,8.845.06,11.343,3.6,0,0,1.431,1.679,1.379,5.487-.052,3.9-.65,5.277-1.977,6.686-1.379,1.319-13.19,7.436-20.813-1.919,0,0-3.486-4.5,1.223-7.916,0,0,3.382-2.4,12.046.39,0,0,2.6,1.079,2.5,2.189-.156,1.2-2.16,2.4-5.073,2.339a9.1,9.1,0,0,1-4.475-1.379c.39.15-3.044-1.919-4.111-.51-1.041,1.319-.781,2.1.26,2.908,2.6,1.739,12.826,1.11,15.87-2.818a1.942,1.942,0,0,0-.624-2.878c-1.821-1.2-7.128-1.949-9.184-2.039-1.951-.12-9.262,0-10.354-2.189,0,0-1.041-1.559.1-5.817,1.2-4.5,9.7-6.237,13.4-6.6,0,0,10.146-.48,12.046,1.919a1.8,1.8,0,0,1-.052,1.349M81.949,60.671a3.531,3.531,0,0,1-4.579-.6c-.728-1.05-.988-5.187-.858-11.694.182-6.656.26-14.812,1.561-16.131,1.3-1.289,2.081-.15,2.6.719a7.522,7.522,0,0,1,1.3,3.958c.156,2.1.6,12.893.6,12.893s.572,9.835-.6,10.854M84.55,25.589c-3.59,1.409-6.036.96-8.117-.09-.911,1.889-1.457,2.459-2.133,2.579-1.04.12-1.951-1.8-2.081-2.4a3.528,3.528,0,0,1-.1-3.088,7.7,7.7,0,0,1-1.821-6.806A15.956,15.956,0,0,1,84.6,4.24s5.1-.42,5.984,2.7h.156s4.943,0,4.839,5.1c0,5.1-5.463,11.454-11.031,13.643m4.631-14.6c-3.278.6-8.325,5.637-10.745,9.805,3.72.779,10.224.479,13.138-6.3,0,0,1.379-4.258-2.393-3.508m-14.387,3.3c-1.041,1.949-1.093,3.118-.6,3.9A28.457,28.457,0,0,1,80.83,10.3a7.572,7.572,0,0,0-6.036,4.078m88.637,46.086a100.636,100.636,0,0,0-5.593,23.928s-.26,2.009-1.691,1.349c-1.431-.6-3.772-3.3-4.293-7.106-.52-4.978,1.4-13.373,5.333-23.028a15.033,15.033,0,0,1-1.3-9.6A30.092,30.092,0,0,1,163.951,30.6s.833-.81,1.3-.54c.572.3.338,2.878-.13,4.2-.416,1.259-3.538,7.5-3.538,7.5s-1.951,4.258-1.4,7.586c3.694-6.537,12.1-19.79,17.3-15.592,3.3,2.7,3.3,11.394.833,16.432-1.951,3.988-7.467,12.234-14.829,10.315M174.306,40.1a58.721,58.721,0,0,0-8.065,13.133,12.509,12.509,0,0,0,6.5-3.118c1.379-1.409,4.553-5.217,4.059-10.255,0,0-.312-2.639-2.5.24M57.754,64a37.054,37.054,0,0,1-22.634.3c-.13,2.219-.338,3.149-.65,3.508-.364.479-3.382,2.459-5.047-.36a18.1,18.1,0,0,1-1.3-6A41.471,41.471,0,0,1,12.356,47.358a5.491,5.491,0,0,1-.26-6.806c2.263-3.239,9.756-6.507,16.468-7.8.26-6.6.885-11.694,1.691-13.943.963-2.7,2.186-.3,3.278,1.5.885,1.349,1.431,7.136,1.483,11.754a37.869,37.869,0,0,1,11.889,1.2c6.4,1.259,10.667,5.037,10.328,9.3a6.429,6.429,0,0,1-4.943,6.057,8.144,8.144,0,0,1-3.382-.989c-1.457-.78-.13-1.5,1.561-2.339,1.873-1.049,1.457-2.1,1.457-2.1C51.25,40.791,42.951,39.2,34.7,39.2c0,5.247.182,13.943.312,19.01a40.523,40.523,0,0,0,10.094.99s21.073-.69,21.671-16.192c.65-15.532-21.073-30.4-37.073-35.082C13.734,3.1,4.681,6.519,3.9,6.969c-.859.48-.078.66-.078.66a14.611,14.611,0,0,1,2.419.75c1.561.6.312,1.5.312,1.5-2.732,1.08-5.775.45-6.374-.989-.6-1.409.39-2.7,1.561-4.588C2.834,2.351,4.082,2.411,4.082,2.411,23.855-5.535,48,8.708,48,8.708,70.579,21.841,74.43,37.283,74.014,43.28c-.364,5.907-2.341,15.892-16.26,20.749M14.307,42.56a1.956,1.956,0,0,0-.676,3.118A35.8,35.8,0,0,0,27.939,56.173c.572-9,.52-12.2.52-16.731-7.649.6-12.072,2.039-14.153,3.118" transform="translate(0 0)" fill="#393c46"/>
    </g>
  </g>
</svg>
