<svg xmlns="http://www.w3.org/2000/svg" width="292.369" height="46.258" viewBox="0 0 292.369 46.258">
  <g id="Pixar_logo" transform="translate(0)">
    <path id="path3422" d="M101.515,28.464c.031-.613.1-.642,2.177-.895l1.981-.242.086-.483c.1-.571.1-11.779-.008-18.487l-.073-4.709-.544-.161a13.386,13.386,0,0,0-1.979-.263c-1.463-.1-1.642-.175-1.646-.644,0-.2.342-.212,5.54-.212,8.266,0,10.64.263,12.89,1.428a5.174,5.174,0,0,1,2.928,3.877,8.294,8.294,0,0,1-1.429,4.8,13.187,13.187,0,0,1-7.179,4.575c-1.719.444-1.995.474-1.993.217,0-.608.131-.725,1.273-1.177a7.786,7.786,0,0,0,3.118-2.005,6.563,6.563,0,0,0,1.627-5.075A4.247,4.247,0,0,0,117.85,6.8c-.949-2.028-2.967-3.1-6.192-3.3l-1.3-.079-.1.531c-.118.6-.1,19.251.022,21.7.074,1.492.095,1.595.339,1.662.143.04,1.185.157,2.315.26s2.122.21,2.206.237.151.187.151.355v.306h-5.42c-2.981,0-6.081.036-6.889.079C101.755,28.62,101.508,28.6,101.515,28.464Z" transform="translate(-57.366 -2.368)" fill="#393c46"/>
    <path id="path3424" d="M203.244,28.32a.87.87,0,0,1,.09-.4,5.643,5.643,0,0,1,1.49-.277c.771-.083,1.663-.215,1.982-.294.58-.143.58-.143.66-.744.171-1.29.041-22.467-.14-22.759a9.416,9.416,0,0,0-1.992-.376c-1.051-.134-1.92-.253-1.931-.264a2.63,2.63,0,0,1-.1-.35l-.083-.33h5.58c3.069,0,6-.036,6.516-.079l.937-.079-.086.349a1.333,1.333,0,0,1-.168.431,15.421,15.421,0,0,1-1.974.311,14.229,14.229,0,0,0-1.982.319c-.123.123-.172,16.725-.06,20.426l.091,3,.6.148a17.661,17.661,0,0,0,1.968.267c.754.065,1.386.134,1.4.153a1.579,1.579,0,0,1,.109.334l.075.3-6.22.026c-3.421.014-6.342.056-6.491.092C203.292,28.581,203.242,28.543,203.244,28.32Z" transform="translate(-114.224 -2.368)" fill="#393c46"/>
    <path id="path3985" d="M308.282,28.884c-2.071-1.689-5.761-5.653-10.486-11.263a7.836,7.836,0,0,0-1.044-1.113c-.405,0-5.257,7.4-6.6,10.067l-.373.742,1.169.2c.643.108,1.341.223,1.549.254a.528.528,0,0,1,.523.572c0,.1-1.246.144-4.876.154l-4.876.014.076-.255c.125-.418.308-.516,1.245-.664a3.522,3.522,0,0,0,2.612-1.5c1.243-1.333,7.247-8.888,8.518-10.719.082-.118-.12-.439-.731-1.166-.464-.552-2.118-2.709-3.675-4.794s-3.206-4.223-3.665-4.753c-.792-.914-.874-.973-1.612-1.165a6.834,6.834,0,0,0-1.229-.211c-.4-.007-.451-.043-.451-.309a1.307,1.307,0,0,0-.03-.347c-.017-.025,2.609-.077,5.836-.116,5.482-.065,5.865-.056,5.864.136,0,.394-.187.479-1.445.676-.7.109-1.416.238-1.6.286l-.331.089.822,1.262a85.6,85.6,0,0,0,5.106,7.094A69.518,69.518,0,0,0,304.1,4.258c.362-.646.335-.667-1.226-.941-1.087-.191-1.166-.224-1.222-.515a1.347,1.347,0,0,1-.041-.329c.011-.01,2.011-.037,4.445-.061l4.425-.043-.077.361a3.426,3.426,0,0,1-.095.383c-.01.012-.554.131-1.21.265-1.156.236-1.213.263-1.845.881-.749.73-3.942,4.341-6.245,7.062l-1.568,1.853.94,1.206c.933,1.2,1.345,1.768,5.7,7.9,1.857,2.614,4.61,6.4,5.143,7.069.094.118-.127.15-1.032.15H309.04Z" transform="translate(-158.979 -2.368)" fill="#393c46"/>
    <path id="path4036" d="M528.564,28.62a99,99,0,0,1-10.6-10.558l-1.716-1.915-1.737.073a11.342,11.342,0,0,0-1.833.16c-.116.1.037,10.349.157,10.544s.774.317,2.475.485c1.4.138,1.461.156,1.533.441a.76.76,0,0,1,.039.331c-.02.018-2.906.053-6.413.077l-6.378.043a.857.857,0,0,1,.149-.626,12.359,12.359,0,0,1,2-.32,8.358,8.358,0,0,0,1.938-.342,5.966,5.966,0,0,0,.171-1.161c.1-1.143-.041-21.4-.149-21.939-.086-.427-.5-.561-2.015-.652-2.026-.121-2.1-.139-2.1-.54V2.368l4.341,0c12.077.012,14.775.419,16.669,2.516,1.18,1.306,1.3,3.027.352,4.968a12.045,12.045,0,0,1-4.078,4.261l-.622.357.433.744c.619,1.064,4.049,6.192,5.464,8.169a55.022,55.022,0,0,0,3.51,4.51l.993,1.156-.755.131c-.415.072-.786.131-.825.131A9.982,9.982,0,0,1,528.564,28.62ZM515.879,14.809a6.952,6.952,0,0,0,3.852-1.96,5.332,5.332,0,0,0,1.682-3.1c.565-2.772-1.247-5.067-4.7-5.95a11.685,11.685,0,0,0-3.915-.371c-.11.11-.156,1.587-.186,5.964l-.04,5.818,1.058-.083C514.214,15.084,515.225,14.94,515.879,14.809Z" transform="translate(-282.421 -2.368)" fill="#393c46"/>
    <path id="path4038" d="M387.6,28.129c.063-.426-.048-.387,1.953-.7l1.384-.216.448-.842c.856-1.612,2.656-6.033,6.316-15.524,1.491-3.867,2.7-7.183,2.641-7.242a10.052,10.052,0,0,0-1.239-.235c-1.818-.28-1.729-.248-1.728-.618V2.422l5.732-.038c5.285-.035,5.726-.023,5.656.16a1.2,1.2,0,0,0-.076.347c0,.1-.484.224-1.386.366a6.961,6.961,0,0,0-1.446.315c-.033.054.587,1.929,1.378,4.167,2.882,8.155,5.322,14.415,6.987,17.921l.694,1.461.588.138a22.263,22.263,0,0,0,2.59.371c.124,0,.216.133.248.351l.051.347-6.325.053c-3.479.029-6.332.049-6.341.044a2.241,2.241,0,0,1,.041-.381l.057-.373,1.644-.2c2.078-.256,2.222-.293,2.113-.542-.137-.31-1.182-3.267-1.921-5.43-.373-1.092-.95-2.7-1.282-3.58l-.6-1.595H405.1c-1.875,0-8.022.384-8.146.508a71.672,71.672,0,0,0-2.4,8.638c-.168.861-.305,1.586-.305,1.611,0,.092.576.217,1.925.416s1.385.21,1.422.533l.038.328h-4.431c-2.437,0-4.706.034-5.044.075l-.613.074Zm17.718-13.192c-.063-.166-.2-.462-.3-.657-.172-.333-1.709-4.786-2.907-8.423-.294-.89-.552-1.637-.574-1.659-.144-.143-4.043,10.287-4.043,10.814a22.844,22.844,0,0,0,3.039.137c1.671.019,3.457.047,3.969.062l.93.028Z" transform="translate(-217.273 -2.368)" fill="#393c46"/>
    <path id="path4092" d="M1.423,95.51c.017-.063.041-.071.4-.127.571-.09.509-.051.666-.419q.318-.743,1.005-2.543c.5-1.3,1.462-3.88,1.474-3.938.007-.033-.074-.054-.4-.107l-.415-.069a.615.615,0,0,1-.019-.071l-.016-.069H6.943l-.008.069c-.008.066-.023.071-.392.133a3.039,3.039,0,0,0-.4.082,6.512,6.512,0,0,0,.208.718,62.165,62.165,0,0,0,2.2,5.852l.125.266.152.031c.084.018.288.052.454.077.282.042.3.05.32.114l.018.069H8.075c-.851,0-1.546-.01-1.546-.022,0-.09.06-.122.266-.14a5.513,5.513,0,0,0,.8-.125,2.479,2.479,0,0,0-.206-.732c-.287-.852-.658-1.913-.781-2.231L6.522,92.1l-.635.018c-.636.018-1.367.056-1.739.089l-.2.018-.136.429a13.782,13.782,0,0,0-.672,2.636,3.869,3.869,0,0,0,.683.14.093.093,0,0,1,.1.071c.015.039.027.073.027.075s-.572.005-1.272.005H1.405Zm5.024-3.659c0-.049-.711-2.1-.962-2.775l-.172-.464-.047.093c-.071.14-.327.795-.657,1.685A8.3,8.3,0,0,0,4.126,91.8c.011.011.411.027.889.035l1.15.021A2.658,2.658,0,0,0,6.447,91.851Z" transform="translate(-1.405 -50.333)" fill="#393c46"/>
    <path id="path4145" d="M50.29,94.613c-1.529-1.909-4.039-5-4.159-5.118l-.066-.066.017,1.4c.035,2.958.09,4.709.149,4.745a5.621,5.621,0,0,0,.822.106c.187.017.343.033.345.034a.381.381,0,0,1,.021.068l.016.066h-1.4a6.734,6.734,0,0,1-1.39-.035.227.227,0,0,0,.013-.067c0-.022.115-.047.35-.077.423-.055.534-.083.552-.142.053-.181.134-2.283.2-5.232a7.843,7.843,0,0,0,0-1.222,3.653,3.653,0,0,0-.7-.091c-.207-.02-.379-.04-.383-.044a.443.443,0,0,1-.023-.076l-.016-.068.6-.017c.328-.009.784-.024,1.015-.032l.419-.015.2.271c.5.693,1.7,2.23,3.3,4.231.6.748,1.141,1.428,1.205,1.511l.117.151.008-.6c.018-1.316-.06-4.811-.114-5.148-.015-.094-.018-.1-.177-.123-.089-.015-.339-.047-.555-.072s-.4-.046-.4-.047a.384.384,0,0,1-.021-.068l-.016-.065H51.56c1.338,0,1.35,0,1.335.052a.227.227,0,0,1-.032.07,3.311,3.311,0,0,1-.409.087c-.216.038-.4.074-.4.08s-.076.649-.107,1.152c-.036.591-.069,1.917-.106,4.259-.016,1-.031,1.866-.034,1.921C51.8,96.492,51.757,96.444,50.29,94.613Z" transform="translate(-25.57 -50.647)" fill="#393c46"/>
    <path id="path4210" d="M337.168,94.482c-1.552-1.938-4.1-5.074-4.222-5.2l-.067-.067.017,1.423c.036,3,.092,4.78.152,4.817a5.786,5.786,0,0,0,.835.108c.191.017.348.033.351.034a.407.407,0,0,1,.021.069l.016.067h-1.424a6.839,6.839,0,0,1-1.411-.035.234.234,0,0,0,.014-.068c0-.022.116-.048.355-.078.429-.056.542-.085.56-.145.054-.183.136-2.317.2-5.31a7.961,7.961,0,0,0,0-1.24,3.7,3.7,0,0,0-.713-.092c-.21-.02-.385-.041-.388-.045a.419.419,0,0,1-.023-.077l-.017-.069.605-.017c.333-.01.8-.024,1.03-.033l.426-.016.2.275c.509.7,1.727,2.263,3.353,4.294.608.76,1.159,1.45,1.224,1.534l.119.153.008-.605c.018-1.336-.061-4.884-.116-5.225-.016-.1-.019-.1-.18-.125-.09-.015-.344-.048-.563-.073s-.4-.046-.4-.048a.343.343,0,0,1-.021-.069l-.017-.066h1.371c1.359,0,1.371,0,1.355.053a.236.236,0,0,1-.033.071,3.363,3.363,0,0,1-.415.088c-.22.039-.4.075-.41.081s-.078.659-.109,1.169c-.037.6-.07,1.945-.108,4.323-.016,1.017-.032,1.894-.034,1.95C338.7,96.39,338.657,96.342,337.168,94.482Z" transform="translate(-185.897 -50.525)" fill="#393c46"/>
    <path id="path4147" d="M89.852,96.022s.012-.035.026-.073c.021-.056.043-.068.125-.069a7.842,7.842,0,0,0,.948-.14c.074-.074.079-6.464.005-6.537a8.489,8.489,0,0,0-.917-.14c-.123-.017-.146-.029-.161-.085l-.018-.066H91.4c1.525,0,1.537,0,1.521.053a.229.229,0,0,1-.033.07,5.191,5.191,0,0,1-.536.089l-.519.072-.021.148c-.028.194-.027,5.937,0,6.2.025.242-.037.212.611.293.476.06.5.067.511.175,0,.007-.692.013-1.54.013S89.852,96.024,89.852,96.022Z" transform="translate(-50.85 -50.749)" fill="#393c46"/>
    <path id="path4265" d="M123.77,95.982a.243.243,0,0,0,.013-.069c0-.023.1-.049.3-.079.466-.071.491-.08.521-.195.126-.478.452-6.35.452-6.471,0-.026-.175-.063-.57-.119-.175-.025-.32-.047-.322-.048a.46.46,0,0,1-.021-.069l-.016-.066h1.313a5.807,5.807,0,0,1,1.3.035.226.226,0,0,0-.014.067c0,.02-.122.056-.317.095a2.945,2.945,0,0,0-.349.083c-.024.015,0,.118.1.4.38,1.135,2.131,4.86,2.187,4.916.009.009.021.011.026,0,.043-.045,2.556-5.249,2.556-5.312a2.025,2.025,0,0,0-.462-.105c-.262-.044-.305-.064-.306-.143,0-.035.153-.04,1.218-.04a5,5,0,0,1,1.205.035.231.231,0,0,0-.014.069c0,.023-.1.049-.3.079-.164.025-.347.057-.406.072l-.108.027.037.2c.155.85.134,5.82.258,6.289.03.115.06.126.5.194.266.041.344.077.344.156a12.9,12.9,0,0,1-1.425.028h-1.425l.01-.07c.01-.067.02-.071.216-.088a7.28,7.28,0,0,0,.893-.129c.022-.023,0-.5-.032-1.859-.028-1.079.019-3.95-.019-4.08l-.023-.079-.072.159c-.124.273-.828,1.447-1.664,3.241s-1.164,2.621-1.227,2.744l-.041.078-.033-.065c-.042-.08-.914-2.368-1.825-4.573a12.329,12.329,0,0,0-.87-1.7c-.023-.027.026-.006.047,1.375.021,1.436-.078,2.3-.086,3.32,0,.613-.069,1.412-.04,1.441a5.072,5.072,0,0,0,.553.087c.524.066.534.068.551.134l.018.067h-1.321A5.839,5.839,0,0,1,123.77,95.982Z" transform="translate(-69.811 -50.723)" fill="#393c46"/>
    <path id="path4316" d="M407.569,95.9a17.9,17.9,0,0,0,.165-2.283l.018-.85.095.033.1.033.016.341c.027.586.043.673.151.857a2.116,2.116,0,0,0,.683.64,1.669,1.669,0,0,0,.869.217,1.632,1.632,0,0,0,.829-.188,1.389,1.389,0,0,0,.691-1.632c-.122-.478-.374-.745-1.256-1.335a7.191,7.191,0,0,1-1.333-1.024,1.639,1.639,0,0,1-.347-1.924,1.692,1.692,0,0,1,.808-.807,1.992,1.992,0,0,1,1.07-.219,2.954,2.954,0,0,1,1.15.184c.087.036.177.072.2.08s.057-.058.129-.424l.086-.438.09-.017a.262.262,0,0,1,.1-.007,3.744,3.744,0,0,1-.042.393c-.087.651-.157,1.394-.174,1.844-.015.4-.02.429-.065.416-.16-.045-.147-.01-.159-.431a.982.982,0,0,0-.359-.9,1.488,1.488,0,0,0-.722-.414,2.364,2.364,0,0,0-.9.025,1.084,1.084,0,0,0-.835,1.135c.034.5.275.748,1.469,1.521a5.775,5.775,0,0,1,1.153.879,2.029,2.029,0,0,1,.569,1.048,2.752,2.752,0,0,1-.054,1,2.182,2.182,0,0,1-1.85,1.484,4.419,4.419,0,0,1-1.727-.141,1.256,1.256,0,0,0-.214-.056s-.052.222-.106.484c-.124.6-.112.56-.181.578C407.562,96.031,407.552,96.021,407.569,95.9Z" transform="translate(-228.461 -49.756)" fill="#393c46"/>
    <path id="path4328" d="M290.471,95.821a3.635,3.635,0,0,1-2.288-1.061,3.243,3.243,0,0,1-.96-1.782,4.867,4.867,0,0,1,.014-1.469,3.746,3.746,0,0,1,1.068-1.961,4.392,4.392,0,0,1,3.715-1.222,4.259,4.259,0,0,1,1.588.422,3.343,3.343,0,0,1,1.859,2.362,4.793,4.793,0,0,1,.014,1.225,4.038,4.038,0,0,1-3.722,3.5A6.9,6.9,0,0,1,290.471,95.821Zm1.763-.407a2.9,2.9,0,0,0,2.44-2.387,4.322,4.322,0,0,0,.014-1.393,3.728,3.728,0,0,0-2.871-2.9,4.564,4.564,0,0,0-1.48.013,2.925,2.925,0,0,0-2.45,3.029,3.84,3.84,0,0,0,2.073,3.284A3.492,3.492,0,0,0,292.234,95.414Z" transform="translate(-161.16 -50.407)" fill="#393c46"/>
    <path id="path4378" d="M530.421,96.054a.5.5,0,0,1,.024-.075c.022-.059.043-.065.258-.082a3.252,3.252,0,0,0,.8-.133c.105-.1.115-6.438.01-6.544a6.5,6.5,0,0,0-.875-.14c-.17-.018-.21-.041-.211-.118a14.778,14.778,0,0,1,2.343-.039,15.275,15.275,0,0,1,3.17.12,3.484,3.484,0,0,1,1.982.908,2.34,2.34,0,0,1,.556.757,2.652,2.652,0,0,1,.214,1.462,3.977,3.977,0,0,1-2.351,3.256,6.547,6.547,0,0,1-2.5.609C533.449,96.064,530.421,96.078,530.421,96.054Zm3.934-.36a4.465,4.465,0,0,0,2.629-1.173,3.143,3.143,0,0,0,.823-1.405,2.3,2.3,0,0,0,.07-.786,2.345,2.345,0,0,0-.07-.792,3.206,3.206,0,0,0-.463-.965c-.7-.922-1.921-1.348-3.886-1.356-.341,0-.711.007-.822.019l-.2.022-.015.1c-.008.053-.03.8-.047,1.655-.024,1.194-.024,1.884,0,2.957.017.769.038,1.442.047,1.5.018.112.052.126.459.2A5.315,5.315,0,0,0,534.355,95.694Z" transform="translate(-297.143 -50.756)" fill="#393c46"/>
    <path id="path4432" d="M212.539,94.923a.32.32,0,0,1,.02-.066l.615-.067c.336-.036.619-.074.629-.084a6.985,6.985,0,0,0,.035-.7c.021-.875.02-4.7,0-5.22l-.016-.4-.591,0a7.2,7.2,0,0,0-1.86.191c-.243.067-.334.115-.362.191-.013.033-.048.2-.077.365-.1.59-.1.567-.186.6a.267.267,0,0,1-.086.021s.015-.238.041-.52c.06-.662.1-1.33.1-1.639v-.243l.084.017.083.017.017.239c.009.132.024.277.033.323l.016.084.224.016c1.325.1,5.209.092,6.2-.006l.168-.017.056-.231a2.391,2.391,0,0,0,.058-.3.075.075,0,0,1,.06-.083c.108-.029.152-.019.138.029-.025.083-.117.783-.209,1.585-.05.437-.1.8-.1.805a.187.187,0,0,1-.086-.006l-.076-.017,0-.557,0-.557-.167-.056a9.718,9.718,0,0,0-2.124-.258l-.517-.016-.02.434c-.026.563-.026,4.051,0,5.1l.02.813.068.014c.037.008.322.039.633.071s.567.058.569.06a.391.391,0,0,1,.02.067l.016.064h-3.448Z" transform="translate(-118.386 -49.876)" fill="#393c46"/>
    <path id="path4482" d="M490.358,95.906a2.446,2.446,0,0,1-2.053-1.7c-.167-.5-.166-.478-.188-2.742-.011-1.135-.029-2.1-.038-2.144-.02-.091-.026-.093-.506-.174-.249-.042-.29-.062-.291-.138,0-.033.165-.038,1.341-.038s1.342,0,1.341.038a.142.142,0,0,1-.019.065,3.112,3.112,0,0,1-.521.093c-.277.036-.509.072-.516.079-.029.029-.06,1.819-.049,2.8a6.419,6.419,0,0,0,.159,1.844,2.049,2.049,0,0,0,1.874,1.722,2.762,2.762,0,0,0,1.4-.228,1.851,1.851,0,0,0,.923-1.275,5.185,5.185,0,0,0,.107-1.24c.015-.664-.022-3.6-.045-3.621s-.637-.1-.87-.127c-.163-.016-.181-.023-.2-.084l-.025-.067h2.515l-.023.066c-.021.062-.046.071-.355.133a1.519,1.519,0,0,0-.351.1c-.033.054-.056,1.323-.042,2.4a9.664,9.664,0,0,1-.083,1.981,2.626,2.626,0,0,1-2.391,2.269A4.921,4.921,0,0,1,490.358,95.906Z" transform="translate(-273.028 -50.783)" fill="#393c46"/>
    <path id="path4485" d="M170.275,95.51c.017-.063.041-.071.4-.127.571-.09.508-.051.666-.419q.318-.743,1.005-2.543c.5-1.3,1.462-3.88,1.474-3.938.007-.033-.074-.054-.4-.107L173,88.307a.555.555,0,0,1-.019-.071l-.016-.069h2.827l-.008.069c-.008.066-.023.071-.392.133a3.049,3.049,0,0,0-.4.082,6.6,6.6,0,0,0,.209.718,62.177,62.177,0,0,0,2.2,5.852l.125.266.153.031c.084.018.288.052.454.077.282.042.3.05.32.114l.018.069h-1.546c-.851,0-1.546-.01-1.546-.022,0-.09.06-.122.267-.14a5.524,5.524,0,0,0,.8-.125,2.511,2.511,0,0,0-.206-.732c-.287-.852-.658-1.913-.781-2.231l-.089-.231-.635.018c-.636.018-1.367.056-1.739.089l-.2.018-.136.429a13.819,13.819,0,0,0-.672,2.636,3.868,3.868,0,0,0,.684.14.092.092,0,0,1,.1.071c.015.039.027.073.027.075s-.572.005-1.272.005h-1.272Zm5.024-3.659c0-.049-.712-2.1-.962-2.775l-.172-.464-.047.093c-.071.14-.327.795-.657,1.685a8.371,8.371,0,0,0-.482,1.407c.011.011.411.027.889.035l1.15.021A2.663,2.663,0,0,0,175.3,91.851Z" transform="translate(-95.799 -50.333)" fill="#393c46"/>
    <path id="path4487" d="M253.543,96.022s.011-.035.026-.073c.021-.056.044-.068.125-.069a7.834,7.834,0,0,0,.948-.14c.074-.074.079-6.464.005-6.537a8.484,8.484,0,0,0-.918-.14c-.123-.017-.146-.029-.16-.085l-.018-.066h1.537c1.525,0,1.537,0,1.521.053a.233.233,0,0,1-.033.07,5.2,5.2,0,0,1-.536.089l-.519.072-.021.148c-.028.194-.026,5.937,0,6.2.026.242-.037.212.611.293.476.06.5.067.511.175,0,.007-.692.013-1.539.013S253.543,96.024,253.543,96.022Z" transform="translate(-142.359 -50.749)" fill="#393c46"/>
    <path id="path4489" d="M446.539,94.923a.32.32,0,0,1,.02-.066l.615-.067c.336-.036.619-.074.629-.084a6.959,6.959,0,0,0,.035-.7c.021-.875.02-4.7,0-5.22l-.016-.4-.591,0a7.2,7.2,0,0,0-1.86.191c-.243.067-.334.115-.362.191-.013.033-.048.2-.077.365-.1.59-.1.567-.186.6a.266.266,0,0,1-.086.021s.015-.238.041-.52c.06-.662.1-1.33.1-1.639v-.243l.084.017.083.017.017.239c.009.132.024.277.033.323l.016.084.224.016c1.325.1,5.209.092,6.2-.006l.168-.017.056-.231a2.386,2.386,0,0,0,.058-.3.075.075,0,0,1,.06-.083c.108-.029.152-.019.138.029-.025.083-.117.783-.209,1.585-.05.437-.1.8-.1.805a.187.187,0,0,1-.086-.006l-.076-.017,0-.557,0-.557-.167-.056a9.718,9.718,0,0,0-2.124-.258l-.517-.016-.02.434c-.026.563-.026,4.051,0,5.1l.02.813.068.014c.038.008.322.039.633.071s.567.058.569.06a.385.385,0,0,1,.02.067l.016.064h-3.448Z" transform="translate(-249.2 -49.876)" fill="#393c46"/>
    <path id="path4491" d="M612.471,95.821a3.634,3.634,0,0,1-2.288-1.061,3.242,3.242,0,0,1-.96-1.782,4.869,4.869,0,0,1,.014-1.469,3.746,3.746,0,0,1,1.068-1.961,4.392,4.392,0,0,1,3.715-1.222,4.259,4.259,0,0,1,1.588.422,3.343,3.343,0,0,1,1.859,2.362,4.789,4.789,0,0,1,.014,1.225,4.038,4.038,0,0,1-3.722,3.5A6.9,6.9,0,0,1,612.471,95.821Zm1.763-.407a2.9,2.9,0,0,0,2.44-2.387,4.322,4.322,0,0,0,.014-1.393,3.728,3.728,0,0,0-2.871-2.9,4.565,4.565,0,0,0-1.48.013,2.925,2.925,0,0,0-2.449,3.029,3.84,3.84,0,0,0,2.073,3.284A3.492,3.492,0,0,0,614.234,95.414Z" transform="translate(-341.169 -50.407)" fill="#393c46"/>
    <path id="path4493" d="M575.543,96.022s.011-.035.026-.073c.021-.056.044-.068.125-.069a7.835,7.835,0,0,0,.948-.14c.074-.074.079-6.464.005-6.537a8.483,8.483,0,0,0-.918-.14c-.123-.017-.146-.029-.161-.085l-.018-.066h1.537c1.525,0,1.537,0,1.521.053a.229.229,0,0,1-.033.07,5.2,5.2,0,0,1-.536.089l-.519.072-.021.148c-.028.194-.026,5.937,0,6.2.026.242-.037.212.611.293.476.06.5.067.511.175,0,.007-.692.013-1.539.013S575.543,96.024,575.543,96.022Z" transform="translate(-322.368 -50.749)" fill="#393c46"/>
    <path id="path4495" d="M654.641,95.9a17.9,17.9,0,0,0,.165-2.283l.018-.85.095.033.1.033.016.341c.027.586.043.673.151.857a2.115,2.115,0,0,0,.683.64,1.667,1.667,0,0,0,.868.217,1.632,1.632,0,0,0,.829-.188,1.389,1.389,0,0,0,.691-1.632c-.122-.478-.374-.745-1.256-1.335a7.193,7.193,0,0,1-1.333-1.024,1.639,1.639,0,0,1-.347-1.924,1.692,1.692,0,0,1,.808-.807,1.992,1.992,0,0,1,1.07-.219,2.955,2.955,0,0,1,1.15.184c.087.036.177.072.2.08s.056-.058.129-.424l.086-.438.09-.017a.261.261,0,0,1,.1-.007,3.7,3.7,0,0,1-.041.393c-.087.651-.157,1.394-.174,1.844-.015.4-.02.429-.065.416-.16-.045-.147-.01-.159-.431a.982.982,0,0,0-.359-.9,1.489,1.489,0,0,0-.722-.414,2.364,2.364,0,0,0-.9.025A1.083,1.083,0,0,0,655.7,89.2c.034.5.275.748,1.469,1.521a5.779,5.779,0,0,1,1.153.879,2.029,2.029,0,0,1,.569,1.048,2.765,2.765,0,0,1-.054,1,2.182,2.182,0,0,1-1.85,1.484,4.422,4.422,0,0,1-1.727-.141,1.243,1.243,0,0,0-.214-.056s-.052.222-.106.484c-.124.6-.112.56-.181.578C654.634,96.031,654.624,96.021,654.641,95.9Z" transform="translate(-366.583 -49.756)" fill="#393c46"/>
  </g>
</svg>
