<svg xmlns="http://www.w3.org/2000/svg" width="193.302" height="102.331" viewBox="0 0 193.302 102.331">
  <g id="Universal_Pictures_logo" transform="translate(0)">
    <g id="Group_133" data-name="Group 133" transform="translate(0 36.306)">
      <path id="Path_70" data-name="Path 70" d="M7.882,230.192c-5.082,0-7.785-3.256-7.816-9.415L0,206.586a.311.311,0,0,1,.272-.307l4.429-.425a.281.281,0,0,1,.233.083.276.276,0,0,1,.1.219L5.1,220.172c.013,3.08,1.183,4.649,3.487,4.649a4.188,4.188,0,0,0,.561-.035c2.7-.263,4.061-2.094,4.048-5.459l-.066-14.015a.3.3,0,0,1,.276-.3l4.443-.434a.3.3,0,0,1,.337.3l.066,14.182c.017,3.807-1.135,10.3-9.073,11.072-.452.04-.886.062-1.3.062" transform="translate(0 -201.373)" fill="#393c46"/>
      <path id="Path_71" data-name="Path 71" d="M117.4,220.873a.3.3,0,0,1-.206-.088.289.289,0,0,1-.092-.219l-.114-23.4a.3.3,0,0,1,.28-.306l4.723-.324a.289.289,0,0,1,.258.114l10.006,13.209-.061-13.752a.293.293,0,0,1,.28-.3l3.82-.272a.319.319,0,0,1,.228.088.276.276,0,0,1,.1.219l.11,23.4a.3.3,0,0,1-.28.307l-3.921.271a.332.332,0,0,1-.263-.109L121.46,205.387l.07,14.917a.3.3,0,0,1-.281.3l-3.825.271Z" transform="translate(-94.398 -194.078)" fill="#393c46"/>
      <path id="Path_72" data-name="Path 72" d="M246.4,217.338a.315.315,0,0,1-.307-.3l-.132-23.334a.3.3,0,0,1,.285-.306l5.082-.25a.307.307,0,0,1,.228.083.274.274,0,0,1,.1.215l.114,23.334a.315.315,0,0,1-.294.307l-5.056.25H246.4Z" transform="translate(-198.464 -192.155)" fill="#393c46"/>
      <path id="Path_73" data-name="Path 73" d="M302.41,212.539a.309.309,0,0,1-.281-.184l-9.949-23.04a.322.322,0,0,1,.031-.289.284.284,0,0,1,.245-.136l5.81-.175a.3.3,0,0,1,.289.184l6.471,15.04,6.69-15.443a.3.3,0,0,1,.263-.184l4.587-.131a.285.285,0,0,1,.259.131.278.278,0,0,1,.026.289l-10.195,23.637a.3.3,0,0,1-.272.179l-3.969.123Z" transform="translate(-235.738 -188.144)" fill="#393c46"/>
      <path id="Path_74" data-name="Path 74" d="M436.586,211.952a.3.3,0,0,1-.306-.3l-.136-23.334a.323.323,0,0,1,.088-.219.313.313,0,0,1,.215-.088l18.7-.013a.3.3,0,0,1,.3.3l.021,4.543a.3.3,0,0,1-.087.215.318.318,0,0,1-.219.087l-13.025.013.017,4.039,8.754-.013a.309.309,0,0,1,.3.307l.022,4.574a.31.31,0,0,1-.088.224.3.3,0,0,1-.215.083l-8.749.013.013,4.377,13.187-.017a.31.31,0,0,1,.3.311l.022,4.569a.275.275,0,0,1-.088.214.292.292,0,0,1-.215.092l-18.817.022h0Z" transform="translate(-351.916 -188)" fill="#393c46"/>
      <path id="Path_75" data-name="Path 75" d="M571.183,198.462l4.149.127c.189,0,.368,0,.54,0,1.528,0,2.422-.215,2.9-.705a2.667,2.667,0,0,0,.56-1.98c-.012-1.109-.219-2.116-2.747-2.186l-5.423-.167Zm14.8,14.384h-.013l-6.046-.184a.28.28,0,0,1-.249-.154l-5.122-8.806-3.312-.1.039,8.486a.282.282,0,0,1-.1.22.328.328,0,0,1-.219.092l-5.1-.158a.3.3,0,0,1-.3-.307l-.109-23.4a.3.3,0,0,1,.1-.219.287.287,0,0,1,.219-.088l12.841.386c4.258.132,6.712,2.843,6.734,7.452.021,4.438-2.358,6.287-4.509,7.058l5.4,9.266a.3.3,0,0,1,0,.307.286.286,0,0,1-.259.149" transform="translate(-456.256 -188.183)" fill="#393c46"/>
      <path id="Path_76" data-name="Path 76" d="M698.959,216.038c-.32,0-.644-.009-.982-.031-3.619-.188-7.4-2.454-8.46-3.146a.275.275,0,0,1-.145-.249l-.026-5.4a.3.3,0,0,1,.473-.25c3.273,2.186,6.4,3.6,8.167,3.7,1.674.087,2.782-.162,3.338-.719a1.42,1.42,0,0,0,.4-1.064c0-.526-.538-1.038-1.7-1.613-.684-.35-1.494-.683-2.358-1.038-3.645-1.5-8.644-3.544-8.666-9.069a6.148,6.148,0,0,1,1.726-4.535,8.558,8.558,0,0,1,6.563-2.112,22.079,22.079,0,0,1,8.675,2.835.3.3,0,0,1,.145.263l.031,5.227a.31.31,0,0,1-.473.259c-1.086-.714-4.885-3.04-8.381-3.229a2.714,2.714,0,0,0-2.125.534.92.92,0,0,0-.3.666c0,.565.56,1.139,1.709,1.757.688.368,1.568.741,2.5,1.131,3.593,1.516,8.513,3.584,8.534,8.552a7.073,7.073,0,0,1-1.91,5.267c-1.489,1.5-3.758,2.265-6.742,2.265" transform="translate(-555.944 -190.014)" fill="#393c46"/>
      <path id="Path_77" data-name="Path 77" d="M801.794,214.576l4.232.307-2.081-5.726ZM815,225.482a.06.06,0,0,1-.022,0l-5.034-.368a.3.3,0,0,1-.263-.2l-1.7-4.71-8.188-.6-1.734,4.43a.3.3,0,0,1-.3.193l-4.219-.311a.341.341,0,0,1-.241-.136.325.325,0,0,1-.021-.276l9.042-22.931a.315.315,0,0,1,.307-.2l3.527.263a.294.294,0,0,1,.263.2l8.863,24.245a.263.263,0,0,1-.036.281.3.3,0,0,1-.246.127" transform="translate(-640.063 -197.976)" fill="#393c46"/>
      <path id="Path_78" data-name="Path 78" d="M936.923,231.982h-.03l-14.511-1.336a.305.305,0,0,1-.271-.307l-.141-23.675a.3.3,0,0,1,.1-.232.331.331,0,0,1,.236-.079l4.386.408a.3.3,0,0,1,.277.3l.087,18.756,9.875.911a.308.308,0,0,1,.276.306l.018,4.639a.289.289,0,0,1-.093.228.3.3,0,0,1-.206.078" transform="translate(-743.92 -202.808)" fill="#393c46"/>
    </g>
    <path id="Path_79" data-name="Path 79" d="M527.582,15.516a10.994,10.994,0,0,0-5.091-.039,2.568,2.568,0,0,0-1.051-.206.276.276,0,0,0-.093.027c.053.026.114.052.171.074-.171.066-.245-.022-.39-.053.092.127.074.105,0,.237a.216.216,0,0,0,.027.057,3.49,3.49,0,0,0,1.336.184v-.031c-.118-.118-.39-.14-.53-.25H521.9v-.026a2.446,2.446,0,0,1,.921.394.5.5,0,0,1,.114-.074c-.1.149-.2.188-.145.342-.6-.092-1.034-.307-1.266.351.066.057.131.11.2.166-.048.017-.1.031-.144.048-.009.053-.022.105-.031.162a1.8,1.8,0,0,0,.671.447c.013.109.03.233.048.351.07.061.07.048.171.031.127.123.039.215.105.294.162.21.779.517.916.705.048.057.009.18.113.245a6.358,6.358,0,0,1,.671.407c.07.039.017,0,0,.074.439.206,1.113.189,1.481.412.075.074.035.026.031.131l1.148.315a.5.5,0,0,0,.078-.022.209.209,0,0,0-.021-.2c.228-.127.285-.377.451-.552a.414.414,0,0,1-.083-.36c.316-.044.412-.215.675-.276-.031-.153-.013-.189-.141-.25.075-.057.057-.031.171,0,.031-.026.053-.057.083-.083-.083-.07-.171-.149-.254-.223h-.052V18.3a1.069,1.069,0,0,0,.474.044.166.166,0,0,0,.061-.031c-.039-.039-.074-.088-.114-.136.013-.013.021-.017.021-.026a1.217,1.217,0,0,0,.675.131,1.987,1.987,0,0,0,.057-.215c.048,0,.092-.013.144-.018-.052.066-.1.136-.144.206a.537.537,0,0,1,.026.057,4.026,4.026,0,0,0,1.735-.21v-.162c.749-.215,1.818.241,2.55.184a16.459,16.459,0,0,0-5.713-2.611" transform="translate(-420.485 -12.274)" fill="#393c46"/>
    <path id="Path_80" data-name="Path 80" d="M311.171,70.978a10.315,10.315,0,0,0,1.069,1.757c.907.929,2.392,1.433,2.961,2.624.276.272.543.539.815.8-.013.131-.031.254-.048.376a5.125,5.125,0,0,1,.158,1.3,3.331,3.331,0,0,0-.074.609c.031.118.061.245.088.372a7.286,7.286,0,0,0-.232,1.236c-.114.048-.044.021-.2,0,0,.136-.013.272-.022.4h.136c-.03.25-.066.5-.1.749.03.25.061.5.087.749-.035.1-.193.14-.219.289.022.092.044.2.061.28a3.738,3.738,0,0,1-.289,1.244c-.153.315,0,.618-.271.8a4.386,4.386,0,0,1,.153,1.034.348.348,0,0,1-.2.026c-.061.942.408,1.455.114,2.147a.554.554,0,0,1,.109.4,6.99,6.99,0,0,0-.561,1.937c-.027-.017-.053-.039-.083-.057,0,.123,0,.25,0,.373-.083-.03-.167-.061-.25-.087-.009,0-.017.018-.026.026a4.841,4.841,0,0,0,.513,1.507c-.022.6-.372.78.074,1.445v.118a1.41,1.41,0,0,1-.14-.092c-.092.276.057.566-.022.88a.7.7,0,0,0,.368.2.466.466,0,0,1,.079-.03,1.224,1.224,0,0,0-.118-.88.46.46,0,0,0,.057-.053c.062.031.132.053.193.083h.026c-.013-.123.053-.1-.053-.11q.026-.052.053-.118c.044.061.1.115.145.175-.031.035-.057.075-.092.114.14.092.21.408.039.477a1.566,1.566,0,0,0,.14.114,7.472,7.472,0,0,0,.008,1.328h-.052c-.04-.153-.153-.578-.088-.618a.871.871,0,0,0-.4-.315,1.238,1.238,0,0,0-.158.512c.075.07.144.149.224.228-.008.131-.017.259-.026.395h-.193v.026a1.554,1.554,0,0,1,.083.166c-.075.057-.149.119-.219.171v.114c.061.04.131.075.193.11a1.566,1.566,0,0,0,.114-.114c.127.114.381.153.5.285a.838.838,0,0,0-.109-.026c.039.088.031.048.083.11-.026.1-.053.184-.079.28a.5.5,0,0,0-.28-.114v.035a.5.5,0,0,0,.087.079c-.053.031-.1.062-.14.088a7.62,7.62,0,0,0,.368.929c.132.061.259.131.39.2a1.093,1.093,0,0,0-.224-.061v.026c.031.109.053.228.084.337.048.018.1.039.14.057.04-.083.074-.166.114-.254.026.07.053.132.084.2h-.114a.173.173,0,0,0-.026.03.745.745,0,0,1,.144.473c.11-.035.22-.07.333-.109.07.066.053.075.166.109l-.057.114c-.092-.031-.184-.057-.276-.083a.289.289,0,0,0-.026.053,1.043,1.043,0,0,0,.42.395,1.209,1.209,0,0,0-.057-.114c.162.131.311.263.473.394v.026c-.149-.061-.294-.126-.447-.193a.9.9,0,0,0,.561.364c-.009.07.009.008-.026.079.215.219,1.117.815,1.367.753-.009.114.009.031-.026.119a4.751,4.751,0,0,0,1.533.67v-.026c-.066-.07-.136-.131-.2-.193.3.1.5.013.7.193v-.114c.127.018.258.039.39.053h.026a.587.587,0,0,0,.026-.053v-.079c-.762-.1-1.008-.758-1.621-.929.031-.036.062-.075.088-.109-.175-.189-.4-.175-.557-.364a.223.223,0,0,0-.057-.027.863.863,0,0,1,.083-.053c.14.053.28.11.412.158v-.022c-.219-.284-.578-.481-.618-.955.013-.018.022-.035.035-.057.127-.031.258-.048.386-.088.105-.079.07-.241.048-.447.18-.118.557-.2.7-.359a.826.826,0,0,0,.022-.425c-.456-.3-1.126-.394-.977-1.068a.767.767,0,0,1,.776-.11h.118c-.039-.11,0-.066-.087-.118.052-.118.078-.1.193-.136a1.108,1.108,0,0,0-.083-.482.518.518,0,0,1,.5-.258c-.07-.131-.237-.158-.337-.25l-.057-.03c.066-.027.127-.062.193-.088a.8.8,0,0,1,.281.311,2.012,2.012,0,0,0,.228.026c.022-.026.053-.048.079-.083a.463.463,0,0,0-.083-.337.381.381,0,0,1-.057-.084c-.105.009-.206.018-.307.031.048.035.092.074.136.11v.026c-.061-.013-.127-.035-.193-.053-.083-.07-.088-.144-.276-.2a5.458,5.458,0,0,1-.175-.714c.21-.255.688.271.981.346.219-.013.438-.021.662-.026l.14-.319c-.035.021-.075.039-.109.057a1.371,1.371,0,0,1-.114-.11c.132-.193.324-.407.215-.679a.562.562,0,0,1,.114.061h.026a1.628,1.628,0,0,0-.057-.171,5.448,5.448,0,0,0,2.677.136c.11-.057.535-.578.692-.7v-.4c-.236-.083-.35-.1-.368-.4.074-.061.145-.131.219-.2-.114-.495-.622-.548-.846-.937.04-.044.079-.092.114-.141.026-.013.052-.022.083-.035.074.122.153.157.2.319.175.036.35.07.53.119.158.105.351.438.561.478.167.035.294-.074.478,0,.131.065.223.227.447.2.565-.061.665-.328,1-.561.2-.083.39-.171.587-.254.14-.188.289-.376.438-.565.372-.162.744-.324,1.113-.482.443-.293.675-.819,1.082-1.135.513-.4,1.161-.468,1.363-1.192a.561.561,0,0,1-.118-.026,7.867,7.867,0,0,1,.25-1.03,4.8,4.8,0,0,1,2.594-1.147c.11.083.219.175.333.254.017-.061.044-.127.057-.188-.04-.013-.075-.022-.114-.039v-.026c.249-.062.5-.439.753-.355.088-.088.092-.053,0-.145v-.083a5.912,5.912,0,0,1,2.02.443c.048-.075.044-.075.14-.11-.026-.442.5-.272.832-.425.215-.162.232-.684.557-.841.525-.263.5-.429.867-.674.162-.1.316-.092.416-.249.377-.605.123-.876.894-1.157a2.949,2.949,0,0,1,.469-1.047c.122-.136.245-.276.363-.416.132-.372.048-.684.193-1.016.154-.368.473-.6.5-1.074.342-.179.644-.118.977-.355.478-.412.951-.833,1.429-1.249.166-.035.337-.065.5-.1.215-.166.429-.333.644-.5a3.409,3.409,0,0,0,1.7-1.91c0-.188.018-.377.026-.57.083-.355.5-2.659.495-2.659-21.614-.047-37.64.216-37.64.216m19.207-60.346a4.532,4.532,0,0,1,1.2.272c.39.175.486.425.907.491-.092.066-.145.026-.28,0a.526.526,0,0,0,.447.293c-.04.022-.075.04-.114.057a1.06,1.06,0,0,0,.333.245h.114c-.035-.114-.013-.083-.105-.14v-.022a15.259,15.259,0,0,0,2.475.977c.044-.122-.018-.057.114-.079V12.7a3.754,3.754,0,0,0-1.358-.937.8.8,0,0,1-.027-.105c.175.092.351.184.526.28v-.109c.5.293,1.082.653,1.586.942.048-.009.1-.018.141-.022h.052s0-.017,0-.026c-.18-.118-.272-.1-.39-.28a2.412,2.412,0,0,0,.228.087.066.066,0,0,0,.03,0c0-.1-.017-.118-.088-.215a.586.586,0,0,1,.03-.052c.066.044.049.026.083.1.171-.013.118-.031.2-.127a.242.242,0,0,0,.136.166h.031a1.127,1.127,0,0,0-.057-.105h.2a.238.238,0,0,1,0-.057,2.1,2.1,0,0,0-.53-.28c-.013-.017-.017-.035-.03-.053.057,0,.114-.013.17-.017v-.031c-.153-.132-.648-.526-1-.473a.42.42,0,0,0-.272-.43h.223c.013-.022.018-.035.031-.057-.036-.035-.075-.07-.115-.105.368.031.688.32,1.008.338-.114.364.6.469.855.666.188-.026.175-.087.311-.105-.026-.018-.053-.04-.079-.057.039-.083.012-.048.083-.1a.47.47,0,0,0,.416.035v.105c.07,0,.132,0,.2,0-.026-.035-.056-.074-.083-.109.088-.044.009-.018.109,0,.036-.009.062-.017.088-.022a1.407,1.407,0,0,0-.115-.166,1.022,1.022,0,0,0,.561.008c-.07-.232-.382-.328-.662-.311-.039-.07.018-.035.079-.07-.092,0-.184-.013-.276-.013-.1-.044-.171-.215-.473-.223.057-.057.008-.031.114-.053a.929.929,0,0,0-.53-.223l-.052-.052a1.068,1.068,0,0,1,.11-.048c-.294-.061-.368-.144-.561-.044-.171-.131-.153-.215-.442-.245a.819.819,0,0,0,.057-.079c-.223-.057-.443-.114-.666-.166V9.835a1.059,1.059,0,0,1,.171-.026c0-.1.013-.07-.031-.153.21.053.412.109.618.158a.585.585,0,0,0,.052-.048.68.68,0,0,0-.5-.193.37.37,0,0,0,.026-.079c.105.031.21.057.307.079A.149.149,0,0,0,336,9.554V9.471c-.245-.184-.3-.189-.692-.171.087-.114.118-.083.28-.1a.068.068,0,0,1,0-.026c-.289-.21-.71-.11-1-.276,0,0-.258-.3-.3-.32a4.317,4.317,0,0,0-1.056-.271c.022-.026.039-.053.061-.079-.272-.123-.538-.211-.832-.346h.228V7.855c-.136-.206-1.4.32-1.639.635-.083-.048.521.469.355.438-.018.026-.04.053-.057.075h-.057c.079.136.666.105.806.109a.372.372,0,0,0,.031.057c-.109.053-.14-.035-.285,0h-.053c.078.2.254.153.442.083.027.07.053.14.088.215a.852.852,0,0,0-.364-.057c.057.189.394.223.631.245.008-.039.022-.079.031-.11-.092-.017-.189-.04-.276-.053.013-.057.022-.109.031-.162a2.292,2.292,0,0,0,.469.193c.048.136.092.28.131.417-.438.052-.876.105-1.319.149l-.027.053c.088.092.184.179.272.272v.026a6.1,6.1,0,0,0-.924-.061c-.609-.105-1.069-.425-1.678-.062a.23.23,0,0,1,.031.079c.174.314.7.191,1.055.239M312.02,30.316c.2.166.8-.176,1.086-.176.127.171.394.841.552.872.228.526-.412.793-.346,1.2a.285.285,0,0,0,.053.026c.114-.1.1-.092.066-.219a.161.161,0,0,1,.053-.031c.052.149-.013.118.14.132-.105.079-.21.157-.311.237a2.068,2.068,0,0,0,.053.631.81.81,0,0,0,.14.061c.018-.035.035-.083.053-.118a.344.344,0,0,0,.03.057,2.085,2.085,0,0,0-.2.337c.07.013.044,0,.118-.031a.32.32,0,0,1,.053.307c.013.429.456.429.249.881.154.232.653.083.776.1,0-.346.442-.705.592-1.047a4.22,4.22,0,0,0,.009-1.56c.052-.018.114-.039.171-.061-.061-.39-.131-.793-.189-1.192.14-1.516,1.354-1.888,2.567-2.252.57-.171.355-.662,1.406-.451.263-.495,1.143-.4,1.66-.526.013-.022.022-.044.031-.057-.11-.075-.083-.035-.14-.166v-.031a1.891,1.891,0,0,1,.732-.158c.057-.083.1-.153.145-.219a.61.61,0,0,0-.508-.223V26.6c.184.035.36.061.539.087v.223a8.114,8.114,0,0,0,.1-.881c-.061-.018-.118-.039-.171-.053-.083-.062-.017-.022-.026-.14s.2-.4.289-.521c-.083-.066-.009-.517,0-.657.136-.114.267-.232.4-.351-.32.451-.158.451-.263.981.083.026.166.053.25.088-.162.136-.329.2-.425.412a.108.108,0,0,0-.026.048c.053.044.031.039.14.057.158-.338.815-.565,1.108-1.039-.18-.184-.105-.293-.162-.543.127.118.18.219.39.272-.035.048-.079.092-.114.14v.022c.434.061,1.021-.5,1.223-.806-.035-.109,0-.053-.084-.114-.009-.022-.017-.035-.026-.057.5-.061,1.226.087,1.778.026-.048-.057-.1-.109-.14-.171-.425.061-.8-.109-1.218-.013.5-.394,2.02.158,2.69-.1.074.18.232.167.561.18.035-.057.075-.109.114-.166-.026-.039-.052-.092-.083-.136-.066.149-.009.158-.171.158-.075,0-.154-.022-.228-.031-.04-.171.022-.394-.28-.447v-.053c.14-.035.272-.066.408-.1-.04-.061-.079-.11-.114-.166.193-.236.587-.359.767-.535a1.464,1.464,0,0,0,1.161-.162c.07.079.056.057.056.162a8.175,8.175,0,0,0,1.639-.149c-.026-.057-.053-.11-.079-.166a3.942,3.942,0,0,1,.447.122,4.228,4.228,0,0,0,1.621-.118.74.74,0,0,1,.048.057c-.131.035-.263.066-.394.1a.575.575,0,0,0-.026.053c.149.031.3.07.447.1-.539.083-1.073.171-1.612.25l-.026.053c.061-.017.127-.031.2-.048-.04.018-.079.031-.114.048a.515.515,0,0,0-.175.464c.053,0,.114,0,.167,0,.114.153.044.25.254.254.39.018.758-.236,1.2-.263.053-.118,0-.136.136-.184.026.026.039.053.061.079.036-.031.075-.07.109-.105.04.18.123.18.285.227.237-.245,1.74.066,2.182-.057a.238.238,0,0,0,.057,0,.4.4,0,0,0-.342-.123c.075-.048.092-.026.14-.109a3.818,3.818,0,0,0,1.187.053v-.088c.026-.162-.228-.3-.417-.316v-.031l.228-.267c-.066-.1-.057-.044-.057-.162-.053-.018-.115-.026-.171-.04-.28.144-.916.289-.937.684-.2.026-.3.017-.311-.21-.644.07-.9-.259-1.437-.32l-.114-.14a1.063,1.063,0,0,1,.114,0,.309.309,0,0,1,.03-.057c-.171-.066-.342-.136-.508-.206-.087-.057-.179-.32-.25-.451l.14-.1a.409.409,0,0,0-.307-.092v-.053a3.072,3.072,0,0,0,.71-.307c.017-.04.04-.07.057-.105v-.031a3.187,3.187,0,0,1-.959.031c-.057-.2-.2-.276-.425-.315-.009-.017-.018-.035-.031-.057.385.04.521.2.85.241.294-.035.583-.07.881-.109v-.079c.088-.061.009-.066-.031-.166a.779.779,0,0,0,.114.031v-.026c-.687-.925-3.1-.6-4.149-.412-.412.079-.706.469-1.275.469a11.369,11.369,0,0,1,2.191-.933s.929.07.986.057c.083-.092.171-.184.254-.272a2.153,2.153,0,0,1,1.446.009c.653.184,1.262.25,1.906.474a7.367,7.367,0,0,0,2.033.561,3.607,3.607,0,0,0,.907-.272c.683-.276,2.046.429,2.515-.087.035-.1.022-.009-.03-.136.017.009.035.022.057.031.084-.136,0-.587.092-.736-.163-.061-.325-.127-.478-.184,0-.079,0-.017.026-.109-.289-.022-.311-.092-.5-.083-.057-.32-.355-.442-.7-.486v-.031c.245.031.486.057.732.083-.132-.188-.443-.21-.478-.4-.233-.053-.434-.013-.623-.136-.1-.066-.075-.075-.079-.166-.118-.083-.425-.057-.534-.153-.127-.109-.149-.21-.337-.289-.035-.119-.07-.044.03-.131a2.1,2.1,0,0,0-.727-.455c.079-.079.044-.048.141-.057a4.079,4.079,0,0,0,.031-.429c-.061-.026-.127-.061-.2-.087a2.188,2.188,0,0,0,.061-.328c-.25-.1-.53-.2-.5-.5h-.141c-.167-.259-.81-1.078-.8-1.341-.688.184-1.568,1.284-2.506.535-.158.013-.267-.227-.556-.285a2.031,2.031,0,0,1-.031-.237c-.061-.013-.127-.022-.193-.031.083-.232.171-.263.149-.565a2.112,2.112,0,0,0,.311-.127c-.026-.039-.048-.087-.079-.127-.088.031-.175.066-.254.1a2.078,2.078,0,0,0-.925-.381.32.32,0,0,0-.022-.053v-.031c.057-.048.04-.039.14-.052v-.026a3.544,3.544,0,0,0-.937-.618l-.7.013a4.9,4.9,0,0,0-1.726-.4l-.171.158a.759.759,0,0,0-.031.105c.048.07.04.07.136.105a.733.733,0,0,1-.513.263c.223.258.065.284.188.451a2.845,2.845,0,0,1-1.021.363c-.031.048-.057.1-.088.153a.9.9,0,0,1,.679.828c-.3.644-.977.753-1.783.889-.294.013-.579.017-.872.026h-.052c.022.123-.013.285.158.342-.153.289-.46.631-.254.96a1.006,1.006,0,0,1-.539.263c0,.079,0,.162,0,.241a.376.376,0,0,0-.109.031c-.008-.105-.061-.092-.109-.223a1.114,1.114,0,0,0-.5.223c-.1-.053-.189-.092-.28-.136a5.131,5.131,0,0,0-.565-1.113,2.221,2.221,0,0,0,.377-.4c0-.07-.018-.14-.027-.211.162-.166.337-.236.46-.455a7.248,7.248,0,0,1-2.576-.881c-.119-.105-.145-.359-.32-.491-.258-.118-.517-.236-.771-.359-.289,0-.578.013-.867.017h-.057a5.338,5.338,0,0,0,.5-.762A1.223,1.223,0,0,0,319,11.51c0-.039,0-.079,0-.127a5.281,5.281,0,0,1,3.058-1.24,1.009,1.009,0,0,1-.109-.123,4.064,4.064,0,0,0,.863.018c.1-.14.087-.14-.018-.263h-.057V9.759a5.011,5.011,0,0,0,2.576-.233c.092-.061.031-.026,0-.1.294-.066.587-.127.876-.193h.053a.16.16,0,0,0,0-.026.319.319,0,0,0-.2-.07c0-.013-.017-.035-.022-.052.193.017.39.031.582.048,0,.144.412.407.6.464.061-.061.013-.008.035-.074a.075.075,0,0,1,.026-.026.21.21,0,0,0-.118.026c-.044-.109-.061-.118-.184-.206V9.29c.092.04.184.083.276.127-.008-.074-.017-.158-.022-.232.109.074.219.153.328.228V9.338c.478-.118.925-.105,1.288-.206-.065-.083-.144-.158-.215-.237a12.226,12.226,0,0,0-5.669-1.42c-1.972.039-9.078,2.471-14.686,5.3a43.724,43.724,0,0,0-7.781,5.069,14.586,14.586,0,0,0-4.219,5.542c-.105.109-.2.223-.3.342-.075.145-.565,1.429-.57,1.485.083,0,.162.013.241.022-.052.377.175.381.079.854-.153.666-.626,1.481-.841,2.217a2.022,2.022,0,0,0-.153.723,1.9,1.9,0,0,1,.048.912c-.109.18-.21.364-.315.547a.791.791,0,0,1-.32-.009c-.009,0-.017.009-.026.009-.039.377.1.6.079.929.079,0,.053,0,.127-.044a1.491,1.491,0,0,1-.316,1.638,3.538,3.538,0,0,1,.311,1.7v.026a.354.354,0,0,0,.057.017c.5-.521.373-.455.42-1.121-.013-.061-.035-.127-.052-.184a1.29,1.29,0,0,0-.127.153.059.059,0,0,1-.031.013,9.109,9.109,0,0,1,.456-1.967c.057-.294-.105-.811-.026-1.161.188-.828.28-2.62.968-3.141.031.062.07.123.105.18a.607.607,0,0,0,.105-.07c.145.491-.456,1.214-.381,1.858a.943.943,0,0,0-.315.355c.022.017.048.044.079.07.048-.053.1-.114.157-.162,0,.162-.088.688.07.85.048.066,0,.031.087.013a.269.269,0,0,1,.048.052,1.025,1.025,0,0,0-.158.574c.053.048.03.048.132.062-.026.118-.053.232-.079.346.044-.009.087-.013.131-.017a1.082,1.082,0,0,1-.32.74c.048.337.2.425.342.675-.105.114-.1.184-.132.355.267.359.609,2.821.1,3.185-.123.175-.127.14-.057.306-.088.123-.14.114-.263.153-.39.946.451,1.2.473,1.967.057.031.118.083.184.127,0,0,3.111-.109,4.959-.149.07,0-.136-.07-.227-.144a9.693,9.693,0,0,1-.377-2.221c.07-.1.132-.2.193-.3-.276-.587.14-1.2.381-1.735.188-.46.386-.924.569-1.389.18-.224.521-.162.631-.557.066-.267-.053-.508.084-.845.123-.306.456-.4.434-.789.18.022.491-.118.522-.272.031-.044.057-.092.087-.145a.227.227,0,0,1-.031.171c.136-.066.083-.083.162-.07.039-.048.074-.1.114-.149-.031-.039-.057-.083-.083-.122a2.021,2.021,0,0,0,1.253-.386c.255.066.162-.122.14-.262a.731.731,0,0,1,.224-.158.07.07,0,0,0,.022.035c-.035.039-.074.079-.1.114.031.017.07.031.1.053.118.092.561-.145.824-.118a4.086,4.086,0,0,1,1.012.346.515.515,0,0,1,.083,0v-.109c-.065-.009-.127-.013-.193-.017a.868.868,0,0,0-.031-.083c.079-.022.149-.044.228-.07a1.374,1.374,0,0,0,.267.368c-.017.009-.035.022-.052.031a.992.992,0,0,0-.053.092c.087.061.175.136.267.2.131-.053.258-.109.39-.158.013.061.031.127.048.189.193-.053.21-.158.333-.267.114.118.2.289.355.364a.834.834,0,0,1,.083.053h.035c.035-.048.07-.1.105-.149-.092-.083-.184-.171-.267-.259a.594.594,0,0,1-.061-.052.408.408,0,0,1,.306-.158c.048-.1.035-.1.031-.25-.074.044-.153.083-.223.127h-.026c-.018-.031-.035-.048-.057-.083a1.858,1.858,0,0,1,1.385-.118,2.133,2.133,0,0,1,.083-.2.528.528,0,0,0,.088-.061c-.009.118-.009.245-.009.359.626.074,1.087-.171,1.551.32.113.123.109.329.161.381" transform="translate(-237.234 -6.031)" fill="#393c46"/>
    <path id="Path_81" data-name="Path 81" d="M484.022,16.334c-.127.044-.246.088-.368.127-.013.048-.022.092-.031.136v.027a1.555,1.555,0,0,0,1.06.083c.057-.053.114-.1.166-.158v-.083a3.037,3.037,0,0,0-.828-.132" transform="translate(-390.226 -13.18)" fill="#393c46"/>
    <path id="Path_82" data-name="Path 82" d="M493.336,16.787c.048.057,0,.022.079.057-.026-.022-.053-.035-.079-.057" transform="translate(-398.064 -13.545)" fill="#393c46"/>
    <path id="Path_83" data-name="Path 83" d="M455.763,17.964a.929.929,0,0,0-.5-.1c.031-.07.057-.145.088-.21-.219-.14-.657-.267-.8-.473-.1-.1.008-.228-.158-.307-.022.026-.039.053-.057.079a1.313,1.313,0,0,0-1.249.548,1.064,1.064,0,0,0-.64.105c.145.109.53.074.723.079l-.118.079c-.027.053-.057.105-.083.158a2.4,2.4,0,0,0,1.345-.215l.469.132a1.1,1.1,0,0,0-.14.053,1.885,1.885,0,0,0,1.227.21c-.035-.048-.07-.088-.114-.14" transform="translate(-365.077 -13.618)" fill="#393c46"/>
    <path id="Path_84" data-name="Path 84" d="M461.765,17.755c-.03-.026-.057-.052-.087-.083a1.029,1.029,0,0,1-.057.154c.066-.022.131-.044.2-.07h-.053Z" transform="translate(-372.473 -14.259)" fill="#393c46"/>
    <path id="Path_85" data-name="Path 85" d="M497.963,21.553c.1-.061.075.009.057-.1-.35-.013-.289-.162-.556-.219a1.623,1.623,0,0,1-.2.1c.048.118.048.132,0,.232a2.869,2.869,0,0,1,.81.074.925.925,0,0,1-.109-.088" transform="translate(-401.231 -17.133)" fill="#393c46"/>
    <path id="Path_86" data-name="Path 86" d="M513.1,21.732c-.009.013-.017.031-.026.044h.053a.281.281,0,0,0-.026-.044" transform="translate(-413.989 -17.535)" fill="#393c46"/>
    <path id="Path_87" data-name="Path 87" d="M501.774,22.8c.044.053,0,.013.084.053-.031-.018-.057-.039-.084-.053" transform="translate(-404.872 -18.396)" fill="#393c46"/>
    <path id="Path_88" data-name="Path 88" d="M458.147,23.366c-.153.048-.306.088-.451.127,0,.061.008.122.017.184a6.575,6.575,0,0,0,1.183-.127.24.24,0,0,0,.027-.057c-.254-.043-.517-.087-.776-.127" transform="translate(-369.306 -18.854)" fill="#393c46"/>
    <path id="Path_89" data-name="Path 89" d="M476.389,23.5v.079c.057,0,.127,0,.2,0v-.026c-.07-.022-.132-.035-.2-.057" transform="translate(-384.389 -18.963)" fill="#393c46"/>
    <path id="Path_90" data-name="Path 90" d="M494.577,24.509a.668.668,0,0,0-.464-.3c0,.061.013.127.017.184h-.25a.3.3,0,0,0,.031.052,3.517,3.517,0,0,1,.718.145l-.053-.079" transform="translate(-398.503 -19.532)" fill="#393c46"/>
    <path id="Path_91" data-name="Path 91" d="M473.765,24.318a.518.518,0,0,1-.031.053c.066.053.127.105.193.158.088.009.171.013.254.026a.14.14,0,0,1,.026-.026.559.559,0,0,1,0-.083c-.149-.039-.3-.087-.447-.127" transform="translate(-382.247 -19.622)" fill="#393c46"/>
    <path id="Path_92" data-name="Path 92" d="M477.368,24.531c-.092-.022-.188-.035-.276-.053.048.118.123.14.219.211h.109a.16.16,0,0,0,.027-.053.676.676,0,0,0-.079-.105" transform="translate(-384.957 -19.751)" fill="#393c46"/>
    <path id="Path_93" data-name="Path 93" d="M466.634,25.954c-.092.031-.188.061-.281.1a1.089,1.089,0,0,1-.062.109.975.975,0,0,1,.079.136c.21.031.32-.087.508-.131a.822.822,0,0,0,.088-.114.589.589,0,0,0-.333-.1" transform="translate(-376.242 -20.942)" fill="#393c46"/>
    <path id="Path_94" data-name="Path 94" d="M490.051,26.746a.261.261,0,0,0,0,.057.643.643,0,0,1,.092-.026V26.75a.515.515,0,0,1-.088,0" transform="translate(-395.41 -21.581)" fill="#393c46"/>
    <path id="Path_95" data-name="Path 95" d="M483.377,27.813c.057.079.127.092.223.127h.109a.7.7,0,0,0-.333-.127" transform="translate(-390.028 -22.442)" fill="#393c46"/>
    <path id="Path_96" data-name="Path 96" d="M555.018,31.057c.044.057,0,.013.088.057-.053-.057,0-.022-.088-.057" transform="translate(-447.834 -25.059)" fill="#393c46"/>
    <path id="Path_97" data-name="Path 97" d="M468.677,30.038a.285.285,0,0,1,.052.052h.166c0-.013,0-.022,0-.031-.074,0-.145-.018-.223-.022" transform="translate(-378.167 -24.237)" fill="#393c46"/>
    <path id="Path_98" data-name="Path 98" d="M596,37.487c-.219.061-.316-.079-.5-.193-.048,0-.1.013-.144.017a.88.88,0,0,1,.092.088,2.566,2.566,0,0,1-1.007-.219c-.013.009-.017.022-.026.026a.656.656,0,0,0,.052.118.977.977,0,0,0-.446-.245v.031a2.043,2.043,0,0,1,.166.171v.026c-.149-.048-.123-.07-.224.022a2.008,2.008,0,0,0-1.117-.67c.052.048.092.1.144.149a2.131,2.131,0,0,0-.232-.092,2.6,2.6,0,0,0-.219.184.183.183,0,0,0-.031.048c.368.088.732.184,1.1.272-.179.131-.372.079-.674.022-.009.009-.018.026-.026.035l.026.053a4.044,4.044,0,0,1,1.064.438c.009.022.018.044.027.062-.088-.031-.184-.048-.276-.07-.013.009-.021.017-.036.026a.9.9,0,0,1,.057.114c.763.2,2.62,1.13,3.264.394v-.026a5.74,5.74,0,0,1-1.025-.78" transform="translate(-478.077 -29.579)" fill="#393c46"/>
    <path id="Path_99" data-name="Path 99" d="M494.561,34.256v.062a.284.284,0,0,1,.061-.062Z" transform="translate(-399.052 -27.641)" fill="#393c46"/>
    <path id="Path_100" data-name="Path 100" d="M508.081,35.05c.053.075.031.062.136.087v-.026c-.053-.044-.035-.04-.136-.062" transform="translate(-409.961 -28.281)" fill="#393c46"/>
    <path id="Path_101" data-name="Path 101" d="M509.66,35.452c-.079-.026-.153-.04-.223-.061-.04.1,0,.083-.193.075,0,.009,0,.017,0,.026a.773.773,0,0,0,.359.228c.048-.035.1-.074.14-.11l-.079-.158" transform="translate(-410.895 -28.556)" fill="#393c46"/>
    <path id="Path_102" data-name="Path 102" d="M498.879,36.442a.847.847,0,0,0-.136-.031.27.27,0,0,0-.088.057.536.536,0,0,0-.057.074.538.538,0,0,0,.394.031c.009-.013.017-.035.026-.048-.044-.026-.092-.056-.14-.083" transform="translate(-402.31 -29.379)" fill="#393c46"/>
    <path id="Path_103" data-name="Path 103" d="M658.812,80.412c-.14-.28-.277-.569-.408-.863a1.173,1.173,0,0,0,.079.123c.017.009.031.017.053.031v-.057c.035-.136-.131-.315-.219-.434a.438.438,0,0,1,.057-.017c.057.061.127.127.2.2,0,0,.018.009.022.009-.048-.118-.092-.232-.14-.35.11.1.2.2.307.3a2.471,2.471,0,0,0-.823-1.069c.044-.114,0-.066.11-.039-.1-.359-.636-.679-.688-1.214.009,0,.022,0,.026,0,.048.294.263.215.386.342h.035c-.114-.158-.228-.315-.333-.473.052-.039.1-.083.162-.127.136-.088.232.206.412.206.017.123.03.132.047.258a2.8,2.8,0,0,0-.057-.889,4.5,4.5,0,0,1-.372-.626,12.688,12.688,0,0,1-1.042-2.09,38.861,38.861,0,0,0-5.885-7.233,45.662,45.662,0,0,0-7.369-5.358.594.594,0,0,1-.3.223c.018.176-.017.176.057.285-.087.035-.145.075-.245.123a4.783,4.783,0,0,0,.338.372c.022.1.044.193.061.289.258.385.789.578.995,1.047.14.031.127,0,.219-.066.044.105.084.223.123.342.14.175.871.6,1.148.425.127-.07.14-.272.079-.434.052-.031.11-.052.162-.079a1.073,1.073,0,0,1-.052-.127v-.03c.779.372,1.17,1.345,2,1.678.035.1.079.2.114.294-.123.043-.149.131-.214.223a1.41,1.41,0,0,0,.587.478c-.074.109-.053.053-.2.013,0,.013,0,.022,0,.026a.494.494,0,0,0,.223.2c.057,0,.11.009.158.009v-.21c-.075-.079-.167-.245-.3-.306,0-.092-.017-.026.053-.1l-.167-.193a.723.723,0,0,1,.311.355c.105,0,.214.017.333.017a.048.048,0,0,0,.026,0v-.083c-.083-.088-.153-.184-.228-.272.039-.075.035-.035.026-.127.1.009.206.026.3.039-.035-.07-.074-.14-.114-.215a11.7,11.7,0,0,1,1.122,1.086c-.154.079-.119.153-.079.315a1.425,1.425,0,0,0-.136.044c-.188.223-.245.013-.469,0-.1-.1-.053-.039-.03-.136-.088-.07-.171-.153-.254-.219,0,.048,0,.109,0,.153-.057-.008-.11-.022-.166-.035.035.162-.04.1-.084.307l-.131-.031a.541.541,0,0,1-.092-.267c-.057-.066-.036-.057-.141-.088.022.031.036.075.062.109-.228,0-.4-.184-.557-.315-.066-.018,0-.013.021-.053a.375.375,0,0,0-.254-.118c0-.022-.017-.035-.022-.053s.013-.035.022-.053c.184.109.377.228.561.337-.11-.245-.377-.613-.67-.526-.07-.079-.1-.285-.176-.4a.905.905,0,0,0,.114.061c.009-.039.013-.087.022-.127-.259-.3-.622-.456-.767-.872-.057.026-.105.053-.158.078.018.07.039.153.057.228a1.017,1.017,0,0,1-.114,0c-.039.026-.092.048-.131.07.092.5,1.1,1.258,1.047,1.481.066.013.132.026.193.044.114.193.236.3.368.513-.105.044-.07-.013-.052.158a.883.883,0,0,0-.416-.074v.132c-.127.013-.259.031-.382.035a.954.954,0,0,0-.057.127c.039.07.074.127.109.188.114.053.087.053.2.013.07.153.132.184.118.32-.079.1-.022.053-.14.022a.081.081,0,0,0-.031,0c.026.2.022.232.114.35-.07-.013-.145-.026-.219-.035-.092-.28-.193-.556-.285-.833a.183.183,0,0,0-.066-.026H646.9c.087.368.4.96.175,1.17-.145.136-.43.162-.552.324.083.175.153.346.228.517a.475.475,0,0,1-.3.153c-.07.092-.14.18,0,.267-.022.026-.053.057-.079.083-.342.07-.727-.228-.982-.32a.073.073,0,0,1-.026.027c.158.232.368.368.451.661a.778.778,0,0,1,.087.079v.027c-.223-.031-.35-.066-.5.057-.105-.087-.223-.166-.338-.254-.184.1-.486.061-.644.223h-.053c.048.237.219.21.368.329-.062.009-.119.022-.171.031.3.272.741.2,1.152.355.017,0,1.327,1.227,1.345,1.288-.048-.035-.092-.07-.145-.114a.037.037,0,0,1-.026.026,3.337,3.337,0,0,1,.7,1.985,6.932,6.932,0,0,1-2.252-.219c-.17-.017-.591.171-.845.087-.123-.048-.175-.149-.368-.105-.149-.035-.232.136-.167.272-.135.039-.306.057-.359.157a.547.547,0,0,0-.113.07c.009.285.179.263.219.478.079-.017.057-.017.14-.062a6.041,6.041,0,0,0,.5,1.266,5.744,5.744,0,0,1-.022,1.976,2.294,2.294,0,0,1,.3.32c.053-.035.11-.066.167-.1a3.186,3.186,0,0,1,.228,1.35c.258-.1.582.057.723.009.1-.031.149-.153.32-.193.473-.215.705.929,1.227,1.021a4.943,4.943,0,0,0,.543-.591,2.759,2.759,0,0,1,.942.039c.022-.039.04-.079.062-.118a.325.325,0,0,1,.245.1c.088-.189.162-.539.232-.7a.568.568,0,0,1,.307-.052,1.783,1.783,0,0,1-.013-.7c.048-.162.175-.171.223-.377-.846-.574-.083-1.3-.32-1.752.162-.21.3-.14.5-.289a4.554,4.554,0,0,0,.364-.464c-.049-.307-.522-.749-.413-1.078.04-.092.172-.153.224-.267.425.14.692.324,1.064.464.18-.167.136-.495.474-.548.021-.122.052-.254.079-.381,0-.022,0-.04,0-.053.753.123,1.192,1.152,1.573,1.674,0,0,1.047,1,1.087,1.03s.141-.044.25.026c.061.105.127.219.188.328a3.64,3.64,0,0,1,1.389,2.129c-.083.044-.249.066-.324.206a.528.528,0,0,1-.446-.18c-.04.053-.031.035-.049.136-.039-.035-.074-.062-.114-.092,0,0-.017,0-.026,0a.6.6,0,0,0,.026.373,11.119,11.119,0,0,0,1.179.946h.03a5.713,5.713,0,0,1-.276-1.161c.062.048.11.083.167.127h.022a1.119,1.119,0,0,0-.07-.683c.017-.149,0-.11.105-.157-.088-.355-.267-.395-.434-.631-.053-.211-.11-.429-.171-.64a.632.632,0,0,0,.061-.048,2.915,2.915,0,0,0,.6.618,2.394,2.394,0,0,0-1.266-1.38.6.6,0,0,1-.074-.373c-.171-.087-.3-.017-.474-.158a6.936,6.936,0,0,1-.9-1.262c-.276-.35-.793-.491-.933-.977.009-.061.026-.127.035-.188-.066-.153-.228-.184-.28-.385.153-.026.145-.07.215-.175a.511.511,0,0,0,.118.013,4.365,4.365,0,0,1,.376.7.118.118,0,0,1,.057.031c0-.061.022-.132.026-.189.053.1.1.189.14.289a.546.546,0,0,0,.084.061c-.04-.092-.075-.179-.1-.254.254.092.354.543.486.7a6.666,6.666,0,0,0,.679.569c-.031-.008-.066-.026-.1-.039.07.131.123.166.189.276a1.335,1.335,0,0,1,.136.013,1.168,1.168,0,0,0-.136-.127.5.5,0,0,1,.053-.022c.057.039.118.083.171.127a.28.28,0,0,1,.022.057c-.057.018-.11.026-.162.04.118.122.1.009.241.083a3.512,3.512,0,0,1,.994.959c.141.407.3.811.461,1.218.184.351.609.705.762,1.078.083,0,.008.009.083-.018.009.031-.066.153,0,.276a.729.729,0,0,0,.438.315.766.766,0,0,0-.052.333,3.013,3.013,0,0,1,.49.9.3.3,0,0,1,.083.062h.027c-.022-.062-.03-.14-.048-.2a.031.031,0,0,1,.026.009c.057.136.123.28.193.425.013.009.031.018.049.031-.018-.075-.035-.144-.049-.227a1.525,1.525,0,0,0,.162.206h.026Z" transform="translate(-518.729 -49.258)" fill="#393c46"/>
    <path id="Path_104" data-name="Path 104" d="M444.834,46.955a1.372,1.372,0,0,0-.561-.131c-.044.017-.092.035-.144.057.083.157.5.289.7.342h.022a.367.367,0,0,0-.018-.267" transform="translate(-358.359 -37.781)" fill="#393c46"/>
    <path id="Path_105" data-name="Path 105" d="M519.356,51.746c.052.092-.017.031.088.083h.026c.013-.018.018-.035.031-.053-.048-.009-.1-.022-.145-.031" transform="translate(-419.059 -41.753)" fill="#393c46"/>
    <path id="Path_106" data-name="Path 106" d="M527.026,58.645a.848.848,0,0,1,.057.079.088.088,0,0,1,.031,0V58.7c-.031-.017-.057-.035-.087-.052" transform="translate(-425.247 -47.32)" fill="#393c46"/>
    <path id="Path_107" data-name="Path 107" d="M521.021,61.139c-.065.017-.132.031-.2.048-.022.189-.026.053-.079.162.385-.017.758-.075,1.091-.1-.267-.04-.539-.079-.81-.114" transform="translate(-420.176 -49.332)" fill="#393c46"/>
    <path id="Path_108" data-name="Path 108" d="M531.624,64.066c0,.079-.026.035.027.11a.362.362,0,0,1,.088-.053v-.031a.51.51,0,0,0-.115-.026" transform="translate(-428.953 -51.694)" fill="#393c46"/>
    <path id="Path_109" data-name="Path 109" d="M501.234,68.808a.507.507,0,0,0-.026.052,7.117,7.117,0,0,0,1.91.986.576.576,0,0,1,.057-.022v-.079a3.57,3.57,0,0,0-1.941-.937" transform="translate(-404.415 -55.52)" fill="#393c46"/>
    <path id="Path_110" data-name="Path 110" d="M537.762,71.122c-.009.031-.022.057-.031.083.1-.048.04.017.088-.079-.018,0-.04,0-.057,0" transform="translate(-433.885 -57.387)" fill="#393c46"/>
    <path id="Path_111" data-name="Path 111" d="M635.122,78.79c-.131-.009-.263-.026-.39-.035.057-.119.2-.3.154-.482-.062-.272-.561-.819-.863-.473a.583.583,0,0,1-.092-.031,2.54,2.54,0,0,0-.872-1.047c-.175-.074-.342-.145-.512-.21-.456-.434-.671-.776-1.363-.785.075-.057.149-.105.227-.158a1.437,1.437,0,0,0-.144-.109c.11-.223-.021-.4.021-.609-.249-.254-.718-.184-1.047-.118,0-.158.053-.1-.084-.158a.406.406,0,0,1,.188-.267c-.017-.061-.039-.127-.057-.189-.289-.061-.569.062-.845-.026-.061.075-.052.092,0,.189-.044.113-.026.127.066.241-.022.009-.044.017-.062.026-.1-.013-.048-.026-.11.053.053.092.11.184.171.276V74.9c-.123-.087-.25-.179-.368-.267a1.215,1.215,0,0,1-.118.171,1.206,1.206,0,0,0,.6.254.924.924,0,0,1,.062.114c-.053.026-.1.057-.145.083.062.14.11.14.088.3.092-.009.188-.026.28-.035.013-.044.022-.092.03-.131v-.057c.013,0,.018,0,.027,0,.047.307.21.517.293.841h.114c.009-.018.017-.04.026-.057-.017-.048-.039-.092-.057-.136l.171.105h.026c-.03-.088-.057-.184-.087-.267.078.053.153.1.228.158a.487.487,0,0,1,.009.408c.083.07.17.14.249.215h.039c-.026-.04-.048-.075-.07-.11V76.46c.092.035.175.066.263.1v-.109c.184.07.254.026.394-.083.189.232.11.6.57.535a.786.786,0,0,0,.14.451c-.219.18-.438.053-.671.009.031.18.093.149.2.245a1.162,1.162,0,0,0-.118.136l.036.048c.074-.031.144-.057.219-.083.079.1.162.2.232.293-.03.175-.179.25-.363.276-.026.026-.057.057-.083.087.092.079.193.153.289.236.294-.153.565.04.894.153.075-.035.153-.079.228-.11-.044.092-.035.083-.026.193h-.565a1.106,1.106,0,0,1-.381.74v.057a.48.48,0,0,1,.315.075c.07-.11.031-.2.241-.25a.9.9,0,0,1,.45.079c.009-.1-.026-.276.057-.329,0,0,.889.07.924.092h.083c-.021-.053-.039-.092-.061-.14a1.662,1.662,0,0,0,.977-.162.414.414,0,0,1,.026-.053c-.022-.062-.035-.11-.057-.163" transform="translate(-507.547 -59.785)" fill="#393c46"/>
    <path id="Path_112" data-name="Path 112" d="M524.762,74.9c-.136-.035-.158.087-.394.122a.754.754,0,0,0-.022-.114.6.6,0,0,1,.307-.237.158.158,0,0,0,.031-.053.109.109,0,0,0-.031-.031.853.853,0,0,0-.622.25c-.017-.04-.035-.079-.057-.118-.07-.017-.018.026-.079-.031a6.691,6.691,0,0,1,.675-.355.7.7,0,0,1,.061-.048c-.122-.114-.421-.092-.622-.114.066-.18,0-.048-.03-.276a.472.472,0,0,0,.315-.153.972.972,0,0,0-.736-.289c-.114-.109-.017-.18-.192-.254-.083.035,0,.053-.092.026-.018.075-.026.044.035.11-.057,0-.114,0-.171-.009-.162.009-.105.017-.088-.136-.14.013-.084-.018-.11.07a.48.48,0,0,0-.281-.088c.018-.031.035-.061.052-.088-.1-.052-.035-.031-.135,0-.018-.022-.044-.035-.062-.057v-.109c.114-.008.228-.013.338-.018v-.026c-.167-.122-.359-.122-.535-.271-.171.066-.338.136-.5.2.079-.276.57-.53.846-.592.039-.048.079-.1.119-.136a.306.306,0,0,0-.223-.1v-.053a1.024,1.024,0,0,0,.394.07.326.326,0,0,1,.057-.048.255.255,0,0,1,.026-.083c-.153-.048-.307-.087-.451-.132-.171,0-.342,0-.508.009a4.211,4.211,0,0,0-.57.281c-.3.144-.425.534-.819.622-.052.105-.048.079,0,.193v.026c-.109-.022-.083,0-.14-.057a.665.665,0,0,0-.368.28,1.056,1.056,0,0,0,.17.145,3.059,3.059,0,0,0-.8.14c.021.083.039.184.057.267a19,19,0,0,1,2.51.666c-.035,0-.074,0-.11-.009q.283.118.566.223c.044-.053.035-.035.053-.136.123.048.245.1.368.153a1.971,1.971,0,0,1-.876.131.774.774,0,0,0-.03.105,2.3,2.3,0,0,0,1.581-.2,1.784,1.784,0,0,1,.118.145.459.459,0,0,1-.285.4c.039.114.022.087.11.144.131-.035.267-.083.394-.118a.608.608,0,0,0-.083.329c.153.039.272.057.42.105.211-.105.272-.32.46-.456-.015-.07-.023-.149-.036-.219" transform="translate(-419.211 -57.881)" fill="#393c46"/>
    <path id="Path_113" data-name="Path 113" d="M627.19,74.527l-.148-.026c-.07.066-.145.132-.22.193.079.1.131.131.141.223a.336.336,0,0,1,.083.053c.066-.057.136-.114.2-.167-.023-.092-.044-.184-.058-.276" transform="translate(-505.771 -60.113)" fill="#393c46"/>
    <path id="Path_114" data-name="Path 114" d="M536.393,74.207v.053a.32.32,0,0,0,.058-.053Z" transform="translate(-432.805 -59.876)" fill="#393c46"/>
    <path id="Path_115" data-name="Path 115" d="M627.063,76.981c-.031-.013-.07-.035-.109-.052-.035.022-.079.039-.11.057a1.391,1.391,0,0,1,.237.329l.078.022c-.031-.119-.061-.233-.1-.355" transform="translate(-505.789 -62.073)" fill="#393c46"/>
    <path id="Path_116" data-name="Path 116" d="M536.259,74.774a1.2,1.2,0,0,0,.083.087.16.16,0,0,1,.061-.03V74.8c-.052-.009-.1-.022-.144-.031" transform="translate(-432.697 -60.334)" fill="#393c46"/>
    <path id="Path_117" data-name="Path 117" d="M664.505,79.493a.558.558,0,0,0,.057.083h.026c-.052-.092.013-.026-.083-.083" transform="translate(-536.177 -64.141)" fill="#393c46"/>
    <path id="Path_118" data-name="Path 118" d="M630.655,78.994c.035.039.062.074.088.105.009-.013.017-.031.03-.048a1.011,1.011,0,0,1-.118-.057" transform="translate(-508.864 -63.739)" fill="#393c46"/>
    <path id="Path_119" data-name="Path 119" d="M628.047,79.2v.057a.229.229,0,0,1,.083-.031v-.026h-.083Z" transform="translate(-506.759 -63.901)" fill="#393c46"/>
    <path id="Path_120" data-name="Path 120" d="M630.868,80.286a.154.154,0,0,0-.031.026v.026c.009.008.022.017.031.026h.026a.228.228,0,0,1,.026-.079Z" transform="translate(-509.011 -64.781)" fill="#393c46"/>
    <path id="Path_121" data-name="Path 121" d="M630.385,80.695v.083h.061c-.039-.083,0-.031-.061-.083" transform="translate(-508.646 -65.111)" fill="#393c46"/>
    <path id="Path_122" data-name="Path 122" d="M520.835,78.137c-.057,0-.11,0-.162,0a.158.158,0,0,0-.065.026c-.009.026-.018.048-.027.079.132.018.263.031.395.044-.044-.048-.092-.1-.14-.145" transform="translate(-420.047 -63.044)" fill="#393c46"/>
    <path id="Path_123" data-name="Path 123" d="M540.92,79.7c-.009.039-.022.07-.035.114.079,0,.158,0,.232.009-.052-.127-.039-.1-.2-.123" transform="translate(-436.43 -64.305)" fill="#393c46"/>
    <path id="Path_124" data-name="Path 124" d="M632.993,81.919c-.07.11-.087.149-.228.193.048.153.083.114.2.184a.313.313,0,0,0,.026-.377" transform="translate(-510.566 -66.099)" fill="#393c46"/>
    <path id="Path_125" data-name="Path 125" d="M632.791,82.079a.053.053,0,0,0-.026.026v.026a.261.261,0,0,1,.057.027c.009-.013.013-.022.026-.027a.671.671,0,0,0-.057-.052" transform="translate(-510.566 -66.228)" fill="#393c46"/>
    <path id="Path_126" data-name="Path 126" d="M498.567,78.9c-.105-.061-.057,0-.088-.145-.131-.122-.07-.074-.026-.25a.271.271,0,0,1-.079-.031c-.105.053-.211.088-.316.132a.445.445,0,0,1-.026.048,2.7,2.7,0,0,0,.981.583c.092.057.035,0,.057.088a.511.511,0,0,0,.228.149c.259-.052.219-.188.6-.175,0-.009.018-.013.026-.026v-.035c-.189-.075-1.354-.338-1.354-.338" transform="translate(-401.853 -63.317)" fill="#393c46"/>
    <path id="Path_127" data-name="Path 127" d="M635.729,83.009h-.062v.114a.78.78,0,0,1,.119-.035c-.022-.026-.036-.053-.057-.079" transform="translate(-512.908 -66.978)" fill="#393c46"/>
    <path id="Path_128" data-name="Path 128" d="M628.136,85.494a.211.211,0,0,1-.026-.057c.176-.057.162-.136.276-.2v-.132c-.2-.193-.373-.193-.548-.455a.45.45,0,0,0-.534.074c.018-.066.009-.035.057-.118-.083-.031-.166-.061-.258-.1a.645.645,0,0,1-.42.153.484.484,0,0,1-.114.311.37.37,0,0,0,.346.04c-.053.14-.105.1-.114.228-.254,0-.509,0-.771.009.022.162.052.061.118.162l-.083.035c.1.1.21.1.372.087-.1.105-.114.122-.2.21.227.294.411.118.744.206-.189.127-.136.131-.14.32-.126.122-.114.075,0,.166-.074.127-.048.048-.026.2-.079-.009-.153-.013-.223-.017-.026.053-.039.1-.061.145.109-.017.205-.035.311-.048-.066.044-.131.088-.193.123.338.815,1.521-.232,2.037-.215a1.419,1.419,0,0,0-.547-1.13" transform="translate(-505.131 -68.188)" fill="#393c46"/>
    <path id="Path_129" data-name="Path 129" d="M542.84,83.1l-.026.079a.288.288,0,0,1,.079-.022.315.315,0,0,0-.052-.057" transform="translate(-437.986 -67.052)" fill="#393c46"/>
    <path id="Path_130" data-name="Path 130" d="M674.94,86.526a1.225,1.225,0,0,1,.052.131c.074.026.131.048.2.07a.367.367,0,0,0-.25-.2" transform="translate(-544.596 -69.816)" fill="#393c46"/>
    <path id="Path_131" data-name="Path 131" d="M485.909,83.327a.661.661,0,0,1-.083.105.3.3,0,0,0,.053.031c.079-.061.07-.018.118-.136Z" transform="translate(-392.004 -67.235)" fill="#393c46"/>
    <path id="Path_132" data-name="Path 132" d="M496.951,83.938a.954.954,0,0,1-.031.109c.031.022.062.04.092.062.166-.022.338-.053.508-.075-.193-.03-.377-.061-.57-.1" transform="translate(-400.955 -67.728)" fill="#393c46"/>
    <path id="Path_133" data-name="Path 133" d="M640.354,87.706a1.039,1.039,0,0,0-.057.171.555.555,0,0,1,.027.074c.052-.009.092-.018.144-.031.009-.026.018-.057.026-.079-.048-.048-.1-.088-.14-.136" transform="translate(-516.644 -70.768)" fill="#393c46"/>
    <path id="Path_134" data-name="Path 134" d="M476.975,83.531c-.018.088-.022.061.031.136a.714.714,0,0,1,.057-.053c-.031-.031-.053-.053-.088-.083" transform="translate(-384.852 -67.4)" fill="#393c46"/>
    <path id="Path_135" data-name="Path 135" d="M512.408,85.051h-.057a.2.2,0,0,1-.026.053c.083-.009.14.035.083-.053" transform="translate(-413.385 -68.626)" fill="#393c46"/>
    <path id="Path_136" data-name="Path 136" d="M477.908,84.12v.057a.353.353,0,0,1,.053-.057Z" transform="translate(-385.615 -67.875)" fill="#393c46"/>
    <path id="Path_137" data-name="Path 137" d="M511.023,85.427c-.044,0-.1,0-.141-.013a1.729,1.729,0,0,1-.171.11c.114,0,.223.009.337.018v-.031c-.008-.026-.017-.062-.026-.083" transform="translate(-412.084 -68.919)" fill="#393c46"/>
    <path id="Path_138" data-name="Path 138" d="M531.087,86.253c.013.035.035.07.052.118.022-.026.04-.039.057-.061-.035-.017-.07-.035-.109-.057" transform="translate(-428.524 -69.596)" fill="#393c46"/>
    <path id="Path_139" data-name="Path 139" d="M539.853,86.842a1.322,1.322,0,0,0-.114.075c-.013.026-.018.053-.03.083h.083c.053-.026.1-.044.144-.07v-.088Z" transform="translate(-435.481 -70.071)" fill="#393c46"/>
    <path id="Path_140" data-name="Path 140" d="M488.006,85.391c.048.022.009.022.052,0Z" transform="translate(-393.763 -68.9)" fill="#393c46"/>
    <path id="Path_141" data-name="Path 141" d="M530.953,86.956c-.009.022-.018.035-.027.057a.564.564,0,0,1,.083.035.3.3,0,0,0,.057-.031c-.034-.017-.074-.039-.113-.061" transform="translate(-428.394 -70.163)" fill="#393c46"/>
    <path id="Path_142" data-name="Path 142" d="M531.651,87.433v.053a.286.286,0,0,0,.053-.048c-.013,0-.031,0-.053,0" transform="translate(-428.979 -70.548)" fill="#393c46"/>
    <path id="Path_143" data-name="Path 143" d="M677.572,91.312c.061.031.114.062.162.087v-.026c-.061-.057-.057-.031-.162-.061" transform="translate(-546.72 -73.678)" fill="#393c46"/>
    <path id="Path_144" data-name="Path 144" d="M667.16,92.379a.166.166,0,0,0-.026.048c.083-.026.031,0,.083-.048Z" transform="translate(-538.298 -74.539)" fill="#393c46"/>
    <path id="Path_145" data-name="Path 145" d="M665.6,93.1c-.009.022-.021.035-.03.057a.079.079,0,0,1,.03.026l.053-.052v-.027a.188.188,0,0,1-.053,0" transform="translate(-537.038 -75.124)" fill="#393c46"/>
    <path id="Path_146" data-name="Path 146" d="M665.411,94.08a.208.208,0,0,0,.009.07c.018,0,.031.009.053.009-.035-.079,0-.035-.061-.079" transform="translate(-536.908 -75.911)" fill="#393c46"/>
    <path id="Path_147" data-name="Path 147" d="M468.926,89.588v.053c.017-.018.035-.031.057-.053Z" transform="translate(-378.368 -72.287)" fill="#393c46"/>
    <path id="Path_148" data-name="Path 148" d="M463.371,90.2c-.009.026-.018.053-.026.074.039-.052.048-.013.026-.074" transform="translate(-373.864 -72.781)" fill="#393c46"/>
    <path id="Path_149" data-name="Path 149" d="M465.508,91.381c-.044.013-.092.031-.145.052v.049c.1.013.189.022.285.035V91.49c-.057-.083-.026-.075-.14-.109" transform="translate(-375.493 -73.734)" fill="#393c46"/>
    <path id="Path_150" data-name="Path 150" d="M457.822,91.517a.211.211,0,0,1-.057.026v.022c.048-.013.1-.026.145-.044a.559.559,0,0,1-.088,0" transform="translate(-369.362 -73.843)" fill="#393c46"/>
    <path id="Path_151" data-name="Path 151" d="M461.87,91.562c.048.026,0,.026.057,0Z" transform="translate(-372.674 -73.88)" fill="#393c46"/>
    <path id="Path_152" data-name="Path 152" d="M460.1,91.675l.057.057h.031c-.052-.057,0-.022-.087-.057" transform="translate(-371.246 -73.971)" fill="#393c46"/>
    <path id="Path_153" data-name="Path 153" d="M467.887,92.4c-.009.022-.017.035-.026.057a.933.933,0,0,1,.14.057h.03a.218.218,0,0,0,.022-.057c-.053-.043-.048-.043-.166-.057" transform="translate(-377.508 -74.556)" fill="#393c46"/>
    <path id="Path_154" data-name="Path 154" d="M304.926,102.428a7.627,7.627,0,0,0-.272.811.147.147,0,0,0,.026,0c.132-.223.443-.464.246-.806" transform="translate(-245.82 -82.647)" fill="#393c46"/>
    <path id="Path_155" data-name="Path 155" d="M303.7,107.374c.084-.061.04-.035.053-.092a.824.824,0,0,1-.053.092" transform="translate(-245.05 -86.564)" fill="#393c46"/>
    <path id="Path_156" data-name="Path 156" d="M436.124,110.073a.443.443,0,0,1-.026.053h.079a.674.674,0,0,1-.053-.053" transform="translate(-351.879 -88.816)" fill="#393c46"/>
    <path id="Path_157" data-name="Path 157" d="M300.834,119.308c-.026.131-.062.267-.083.4,0,.017.018.035.022.053a.129.129,0,0,1,.035,0c.035-.136.066-.276.1-.407a.479.479,0,0,1-.074-.044" transform="translate(-242.67 -96.267)" fill="#393c46"/>
    <path id="Path_158" data-name="Path 158" d="M697.285,123.3a1.218,1.218,0,0,1,.088.118v-.087c-.027-.009-.057-.022-.088-.031" transform="translate(-562.626 -99.488)" fill="#393c46"/>
    <path id="Path_159" data-name="Path 159" d="M355.955,120.714c-.022.044-.035.079-.052.114.052-.061.074-.039.052-.114" transform="translate(-287.171 -97.402)" fill="#393c46"/>
    <path id="Path_160" data-name="Path 160" d="M368.762,120.441c-.1.083-.175.092-.223.232.184.017.3-.009.464,0v-.026c-.078-.07-.158-.145-.241-.206" transform="translate(-297.367 -97.182)" fill="#393c46"/>
    <path id="Path_161" data-name="Path 161" d="M351.962,122.46c-.018.031-.035.057-.053.083.035-.022.07-.043.105-.061a.27.27,0,0,0-.053-.022" transform="translate(-283.949 -98.811)" fill="#393c46"/>
    <path id="Path_162" data-name="Path 162" d="M704.272,132.556v.092h.053c-.039-.088,0-.031-.053-.092" transform="translate(-568.264 -106.957)" fill="#393c46"/>
    <path id="Path_163" data-name="Path 163" d="M692.583,131.966c.026.061.052.131.083.2a.549.549,0,0,0,.32,1.047.76.76,0,0,0,.057.057h.026a1.981,1.981,0,0,0-.486-1.305" transform="translate(-558.765 -106.481)" fill="#393c46"/>
    <path id="Path_164" data-name="Path 164" d="M694.823,132.736a.133.133,0,0,0-.057.022v.079a.729.729,0,0,0,.137.013c-.04-.087-.018-.061-.079-.114" transform="translate(-560.594 -107.102)" fill="#393c46"/>
    <path id="Path_165" data-name="Path 165" d="M294.039,141.29a.416.416,0,0,1-.026.057c.026.035.053.066.079.1h.022c-.009-.135.009-.113-.074-.153" transform="translate(-237.234 -114.004)" fill="#393c46"/>
    <path id="Path_166" data-name="Path 166" d="M695.356,141.153a4.2,4.2,0,0,0-.705-1.774c-.022-.009-.052-.026-.083-.039-.014.088-.036.171-.057.259-.109.061-.074.066-.219.008.022.324.35.626.46.894.1.206.026.46.087.618.114.066.135.162.355.2-.013-.075-.017-.158-.026-.232a.3.3,0,0,1,.158.07Z" transform="translate(-560.21 -112.43)" fill="#393c46"/>
    <path id="Path_167" data-name="Path 167" d="M719.132,142.788v.118a.482.482,0,0,1,.083.062c-.026-.123-.018-.105-.083-.18" transform="translate(-580.254 -115.213)" fill="#393c46"/>
    <path id="Path_168" data-name="Path 168" d="M720.4,143.945c.018.035.035.07.052.114h.036c-.048-.1,0-.057-.088-.114" transform="translate(-581.28 -116.146)" fill="#393c46"/>
    <path id="Path_169" data-name="Path 169" d="M719.185,145.442c.013.044.035.092.057.145-.044-.035-.075-.066-.11-.092a1.857,1.857,0,0,0,.11.171.639.639,0,0,1,.083-.07c-.052-.057-.1-.11-.14-.153" transform="translate(-580.254 -117.354)" fill="#393c46"/>
    <path id="Path_170" data-name="Path 170" d="M720.971,146.146v.079a.619.619,0,0,0,.114.1v-.114a1.273,1.273,0,0,1-.114-.061" transform="translate(-581.738 -117.922)" fill="#393c46"/>
    <path id="Path_171" data-name="Path 171" d="M715.979,147.6c.039.053.079.1.114.145a.3.3,0,0,0-.114-.145" transform="translate(-577.71 -119.093)" fill="#393c46"/>
    <path id="Path_172" data-name="Path 172" d="M722.376,150.591v.083c.04.018.074.048.114.066-.04-.057-.074-.1-.114-.149" transform="translate(-582.872 -121.509)" fill="#393c46"/>
    <path id="Path_173" data-name="Path 173" d="M651.8,148.327c0,.052.018.1.026.153.008-.057.022-.1.031-.158a.26.26,0,0,1-.057,0" transform="translate(-525.925 -119.678)" fill="#393c46"/>
    <path id="Path_174" data-name="Path 174" d="M718.814,152.634v.219c.036.035.057.065.088.1a.6.6,0,0,0,.079.031.228.228,0,0,0,.021-.048c-.061-.1-.122-.2-.188-.3" transform="translate(-579.997 -123.157)" fill="#393c46"/>
    <path id="Path_175" data-name="Path 175" d="M721.06,153.28c-.039-.008-.07-.026-.114-.035.084.083.171.153.25.241.013-.017.035-.031.057-.053-.066-.053-.127-.105-.193-.154" transform="translate(-581.718 -123.65)" fill="#393c46"/>
    <path id="Path_176" data-name="Path 176" d="M719.813,155.038c.009.035.022.07.031.114a.713.713,0,0,0,.109.092v-.118c-.048-.026-.088-.057-.14-.088" transform="translate(-580.804 -125.097)" fill="#393c46"/>
    <path id="Path_177" data-name="Path 177" d="M328.431,155.219v.223c.035,0,.074,0,.105-.009V155.4c-.031-.088-.035-.131-.105-.184" transform="translate(-265.005 -125.243)" fill="#393c46"/>
    <path id="Path_178" data-name="Path 178" d="M725.233,161.774a1.407,1.407,0,0,1,.075.171.562.562,0,0,1,.039-.057,1,1,0,0,1-.114-.114" transform="translate(-585.177 -130.532)" fill="#393c46"/>
    <path id="Path_179" data-name="Path 179" d="M516.388,407.311c-.009.035-.017.074-.026.113.044-.039.092-.079.14-.113Z" transform="translate(-416.643 -328.652)" fill="#393c46"/>
    <path id="Path_180" data-name="Path 180" d="M511.5,407.559a.6.6,0,0,1-.087.057.77.77,0,0,0,.061.056h.135v-.026c-.034-.03-.074-.061-.109-.087" transform="translate(-412.653 -328.852)" fill="#393c46"/>
    <path id="Path_181" data-name="Path 181" d="M513.028,407.72v.057a.678.678,0,0,1,.057-.057Z" transform="translate(-413.953 -328.982)" fill="#393c46"/>
    <path id="Path_182" data-name="Path 182" d="M489.843,421.669a.592.592,0,0,0-.022.092c.053-.057.017,0,.048-.092Z" transform="translate(-395.227 -340.237)" fill="#393c46"/>
    <path id="Path_183" data-name="Path 183" d="M489.547,422.442c0,.022-.017.052-.022.083a.658.658,0,0,1,.053-.061c-.009,0-.018-.018-.031-.022" transform="translate(-394.988 -340.86)" fill="#393c46"/>
    <path id="Path_184" data-name="Path 184" d="M474.268,430.471c-.132.022-.263.036-.39.053a1.876,1.876,0,0,1-.78.71v.03c.053.022.1.04.14.062a1.344,1.344,0,0,0,.614-.258c0-.048,0-.1,0-.14a.9.9,0,0,0,.42-.2v-.254Z" transform="translate(-381.734 -347.339)" fill="#393c46"/>
    <path id="Path_185" data-name="Path 185" d="M399.619,436.144c.057.026.008.03.061,0Z" transform="translate(-322.445 -351.916)" fill="#393c46"/>
    <path id="Path_186" data-name="Path 186" d="M398.991,440.433c-.009.021-.022.036-.03.057a.6.6,0,0,1,.057.03c.013-.009.017-.022.026-.03a.575.575,0,0,0-.053-.057" transform="translate(-321.914 -355.377)" fill="#393c46"/>
    <path id="Path_187" data-name="Path 187" d="M435.983,450.709c.031.14.022.176.14.223v-.021c-.048-.11,0-.145-.14-.2" transform="translate(-351.786 -363.669)" fill="#393c46"/>
    <path id="Path_188" data-name="Path 188" d="M404.133,454.382c.048.083,0,.009.087.057.009-.009.017-.022.026-.026v-.031Z" transform="translate(-326.087 -366.632)" fill="#393c46"/>
    <path id="Path_189" data-name="Path 189" d="M400.855,457.526c-.057-.048-.053-.048-.171-.057.026.03.04.057.061.083h.114c0-.013,0-.017,0-.026" transform="translate(-323.304 -369.123)" fill="#393c46"/>
    <path id="Path_190" data-name="Path 190" d="M401.751,460.532v.088h.079c-.026-.027-.052-.057-.079-.088" transform="translate(-324.165 -371.595)" fill="#393c46"/>
    <path id="Path_191" data-name="Path 191" d="M403.094,462.6c-.008.017-.017.035-.026.057h.057a.581.581,0,0,0-.031-.057" transform="translate(-325.228 -373.262)" fill="#393c46"/>
    <path id="Path_192" data-name="Path 192" d="M416.207,484.555c-.008.009-.018.022-.026.031.017.022.044.04.061.062a.413.413,0,0,1,.079-.03c-.035-.022-.075-.04-.114-.062" transform="translate(-335.809 -390.978)" fill="#393c46"/>
    <path id="Path_193" data-name="Path 193" d="M417.88,485.767c-.026-.009-.053-.018-.084-.031-.052.035-.113.07-.166.114.175.021.245.07.307-.083Z" transform="translate(-336.978 -391.931)" fill="#393c46"/>
    <path id="Path_194" data-name="Path 194" d="M421.447,485.767c-.053-.009-.1-.018-.145-.031a.568.568,0,0,1-.088.031.253.253,0,0,1,.061.026c.026.026.057.057.079.083a.937.937,0,0,1,.118-.057.425.425,0,0,0-.026-.053" transform="translate(-339.87 -391.931)" fill="#393c46"/>
    <path id="Path_195" data-name="Path 195" d="M420.909,486.335v-.027a.876.876,0,0,1-.477-.11c-.027-.189,0-.254-.193-.307a1.973,1.973,0,0,1,.083.561.288.288,0,0,1,.088.026c.022-.066.053-.135.079-.2a.154.154,0,0,0,.057.026.534.534,0,0,0,.25.307c-.044-.066-.092-.127-.14-.193v-.031c.087-.022.166-.035.254-.057" transform="translate(-339.082 -392.057)" fill="#393c46"/>
    <path id="Path_196" data-name="Path 196" d="M421.42,490.365l.03.061a.19.19,0,0,1,.022-.061Z" transform="translate(-340.036 -395.666)" fill="#393c46"/>
    <path id="Path_197" data-name="Path 197" d="M430.463,493.4c-.009.105-.031.044.088.084a.788.788,0,0,1-.088-.084" transform="translate(-347.326 -398.116)" fill="#393c46"/>
    <path id="Path_198" data-name="Path 198" d="M434.691,493.561c.066.092.206.083.333.109a.2.2,0,0,0,.026-.057l-.359-.053" transform="translate(-350.744 -398.245)" fill="#393c46"/>
    <path id="Path_199" data-name="Path 199" d="M429.337,493.834a.349.349,0,0,0,.311.219.682.682,0,0,0-.311-.219" transform="translate(-346.424 -398.465)" fill="#393c46"/>
    <path id="Path_200" data-name="Path 200" d="M296.231,0a50.958,50.958,0,0,0-46.909,31.023c7.154-12.745,22.291-28.04,46.874-28.018,22.213.022,38.813,13.38,46.953,28.048A50.954,50.954,0,0,0,296.231,0" transform="translate(-201.173)" fill="#393c46"/>
    <path id="Path_201" data-name="Path 201" d="M337.816,343.923c-6.6,20.2-25.17,35.912-48.706,35.912-24.964,0-41.735-15.5-48.477-35.483,7.014,18.611,26.085,31.956,48.508,31.956,22.6,0,41.8-13.555,48.674-32.386" transform="translate(-194.162 -277.505)" fill="#393c46"/>
  </g>
</svg>
