<svg xmlns="http://www.w3.org/2000/svg" xmlns:xlink="http://www.w3.org/1999/xlink" width="159.928" height="46" viewBox="0 0 159.928 46">
  <defs>
    <clipPath id="clip-path">
      <rect id="Rectangle_17" data-name="Rectangle 17" width="147.171" height="41" fill="none"/>
    </clipPath>
    <clipPath id="clip-path-2">
      <rect id="Rectangle_18" data-name="Rectangle 18" width="147.171" height="41" fill="#fb9929"/>
    </clipPath>
  </defs>
  <g id="Group_168" data-name="Group 168" transform="translate(-482.415 -5849.146)">
    <g id="Group_44" data-name="Group 44" transform="translate(493.207 5854.146)">
      <g id="Group_43" data-name="Group 43" transform="translate(0 -5)" clip-path="url(#clip-path)">
        <path id="Path_17" data-name="Path 17" d="M0,29.34,0,11.667A2.826,2.826,0,0,1,1.413,9.219l15.3-8.84a2.825,2.825,0,0,1,2.826,0L34.851,9.214a2.827,2.827,0,0,1,1.414,2.447l0,17.675a2.827,2.827,0,0,1-1.413,2.447l-15.3,8.84a2.825,2.825,0,0,1-2.825,0L1.416,31.787A2.826,2.826,0,0,1,0,29.34" transform="translate(0 0)" fill="#fff"/>
      </g>
    </g>
    <g id="Group_143" data-name="Group 143" transform="translate(55.793 -840.854)">
      <g id="Group_46" data-name="Group 46" transform="translate(437.415 6690)">
        <g id="Group_45" data-name="Group 45" clip-path="url(#clip-path-2)">
          <path id="Path_18" data-name="Path 18" d="M82.443,106.288v3.766h4.792v-9.2s0-2.44-2.4-1.22l-9.949,5.713a1.871,1.871,0,0,0-1.028,1.99c.064,1.6,0,7.317,0,7.317a1.337,1.337,0,0,0,1.511,1.381H81.71s.739-.08.819.8c.069.767.032,4.621.032,4.621s.049.739-.867.322c-1.15-.525-3.209-1.605-3.209-1.605s-.193,0-.257-.706-.065-1.413-.065-1.413l-4.306-.064v2.889a2.2,2.2,0,0,0,1.16,1.99c1.284.769,10.014,5.841,10.014,5.841a1.534,1.534,0,0,0,2.2-.513V113.563s.2-1.284-1.481-1.348c-1.929-.073-7.013,0-7.013,0s-.492.085-.45-1.155c.042-1.221-.042-2.846-.042-2.846Z" transform="translate(-69.756 -93.782)" fill="#fb9929"/>
          <path id="Path_19" data-name="Path 19" d="M345.8,100.007v27.087a1.223,1.223,0,0,0,1.155,1.206c1.155.11,3.434-2.009,3.434-2.009V115.529l4.413,7.6a1.34,1.34,0,0,0,1.7-.064l2.183-1.637s.737-.963.144-1.734-4.14-6.225-4.14-6.225l4.076-6.323a1.245,1.245,0,0,0-.3-1.877c-1.172-.818-3.29-2.279-3.29-2.279l-1.027,1.717-3.771,6.563-.032-10.462s-.353-.931-3.129-2.2c0,0-1.412-.412-1.412,1.4" transform="translate(-326.611 -93.095)" fill="#fb9929"/>
        </g>
      </g>
      <text id="Slide" transform="translate(483.919 6721)" fill="#fff" font-size="27" font-family="NexaBold, Nexa"><tspan x="0" y="0" letter-spacing="0.01em">S</tspan><tspan y="0">li</tspan><tspan y="0" letter-spacing="0.01em">d</tspan><tspan y="0">e</tspan></text>
      <text id="Kit" transform="translate(552.55 6722)" fill="#fff" font-size="29" font-family="NexaLight, Nexa"><tspan x="0" y="0">Kit</tspan></text>
    </g>
    <rect id="Rectangle_19" data-name="Rectangle 19" width="61.085" height="41" transform="translate(482.415 5854.146)" fill="none"/>
  </g>
</svg>
