<svg id="Group_97" data-name="Group 97" xmlns="http://www.w3.org/2000/svg" xmlns:xlink="http://www.w3.org/1999/xlink" width="11.164" height="12.766" viewBox="0 0 11.164 12.766">
  <defs>
    <clipPath id="clip-path">
      <rect id="Rectangle_35" data-name="Rectangle 35" width="11.164" height="12.766" fill="#fb9929"/>
    </clipPath>
  </defs>
  <g id="Group_96" data-name="Group 96" clip-path="url(#clip-path)">
    <path id="Path_46" data-name="Path 46" d="M135.318,3.953h-1.6a1.177,1.177,0,0,1-1.175-1.175v-1.6A1.174,1.174,0,0,0,131.365,0h-1.656a1.175,1.175,0,0,0-1.175,1.175V8.386a1.175,1.175,0,0,0,1.175,1.175h5.609a1.175,1.175,0,0,0,1.175-1.175V5.128a1.177,1.177,0,0,0-1.175-1.175m-1.291,1.436-1.6,2.4a.376.376,0,0,1-.622,0l-.8-1.2a.374.374,0,1,1,.622-.415l.49.735L133.4,4.974a.374.374,0,1,1,.622.415Z" transform="translate(-125.329)" fill="#fb9929"/>
    <path id="Path_47" data-name="Path 47" d="M.854,137.078v-6.739A1.173,1.173,0,0,0,0,131.469v7.211a1.177,1.177,0,0,0,1.175,1.175H6.784A1.177,1.177,0,0,0,7.914,139H2.778A1.925,1.925,0,0,1,.854,137.078Z" transform="translate(0 -127.089)" fill="#fb9929"/>
    <path id="Path_48" data-name="Path 48" d="M65.121,72.812V66.073a1.173,1.173,0,0,0-.854,1.13v7.211a1.177,1.177,0,0,0,1.175,1.175h5.609a1.177,1.177,0,0,0,1.13-.854H67.045A1.925,1.925,0,0,1,65.121,72.812Z" transform="translate(-62.665 -64.425)" fill="#fb9929"/>
    <path id="Path_49" data-name="Path 49" d="M308.349,9.844a.428.428,0,0,0,.427.427h1.6a1.912,1.912,0,0,1,.995.278,2.3,2.3,0,0,0-.5-.735l-2.072-2.072a2.3,2.3,0,0,0-.734-.5,1.912,1.912,0,0,1,.277.994v1.6Z" transform="translate(-300.389 -7.066)" fill="#fb9929"/>
  </g>
</svg>
