<svg xmlns="http://www.w3.org/2000/svg" xmlns:xlink="http://www.w3.org/1999/xlink" width="12" height="12" viewBox="0 0 12 12">
  <defs>
    <clipPath id="clip-path">
      <rect id="Rectangle_72" data-name="Rectangle 72" width="12" height="12" transform="translate(0)" fill="#fb9929"/>
    </clipPath>
  </defs>
  <g id="Group_188" data-name="Group 188" transform="translate(0.123 0)">
    <g id="Group_187" data-name="Group 187" transform="translate(-0.123 0)" clip-path="url(#clip-path)">
      <path id="Path_210" data-name="Path 210" d="M.947,0H4.261a.947.947,0,0,1,.947.947V4.261a.947.947,0,0,1-.947.947H.947A.947.947,0,0,1,0,4.261V.947A.947.947,0,0,1,.947,0" transform="translate(0.117 0)" fill="#fb9929"/>
      <path id="Path_211" data-name="Path 211" d="M224.947,0h3.314a.947.947,0,0,1,.947.947V4.261a.947.947,0,0,1-.947.947h-3.314A.947.947,0,0,1,224,4.261V.947A.947.947,0,0,1,224.947,0" transform="translate(-217.255 0)" fill="#fb9929"/>
      <path id="Path_212" data-name="Path 212" d="M.947,224H4.261a.947.947,0,0,1,.947.947v3.314a.947.947,0,0,1-.947.947H.947A.947.947,0,0,1,0,228.261v-3.314A.947.947,0,0,1,.947,224" transform="translate(0.117 -217.371)" fill="#fb9929"/>
      <path id="Path_213" data-name="Path 213" d="M226.6,224a2.6,2.6,0,1,1-2.6,2.6,2.6,2.6,0,0,1,2.6-2.6" transform="translate(-217.255 -217.371)" fill="#fb9929"/>
    </g>
  </g>
</svg>
