<svg version="1.2" baseProfile="tiny-ps" xmlns="http://www.w3.org/2000/svg" viewBox="0 0 22 13" width="22" height="13">
	<title>accordion-arrow-svg</title>
	<style>
		tspan { white-space:pre }
		.s0 { fill: #fb9929 } 
	</style>
	<path id="Path_16" class="s0" d="m12.07 12.47c-0.17 0.17-0.36 0.3-0.58 0.39c-0.22 0.09-0.45 0.14-0.69 0.14c-0.24 0-0.47-0.05-0.69-0.14c-0.22-0.09-0.42-0.23-0.58-0.39l-9-9.07c-0.17-0.17-0.3-0.37-0.39-0.59c-0.09-0.22-0.14-0.46-0.14-0.69c0-0.24 0.05-0.47 0.14-0.69c0.09-0.22 0.22-0.42 0.39-0.59c0.17-0.17 0.36-0.3 0.58-0.39c0.22-0.09 0.45-0.14 0.69-0.14c0.24 0 0.47 0.05 0.69 0.14c0.22 0.09 0.42 0.23 0.58 0.39l7.73 7.79l7.73-7.79c0.17-0.17 0.36-0.3 0.58-0.39c0.22-0.09 0.45-0.14 0.69-0.14c0.24 0 0.47 0.05 0.69 0.14c0.22 0.09 0.42 0.23 0.58 0.39c0.17 0.17 0.3 0.37 0.39 0.59c0.09 0.22 0.14 0.46 0.14 0.69c0 0.24-0.05 0.47-0.14 0.69c-0.09 0.22-0.22 0.42-0.39 0.59l-9 9.07" />
</svg>