<svg xmlns="http://www.w3.org/2000/svg" xmlns:xlink="http://www.w3.org/1999/xlink" width="13" height="13" viewBox="0 0 13 13">
  <defs>
    <clipPath id="clip-path">
      <rect id="Rectangle_47" data-name="Rectangle 47" width="13" height="13" transform="translate(-0.025)" fill="none"/>
    </clipPath>
  </defs>
  <g id="Group_128" data-name="Group 128" transform="translate(0.025 0.499)">
    <g id="Group_127" data-name="Group 127" transform="translate(0 -0.499)" clip-path="url(#clip-path)">
      <path id="Path_66" data-name="Path 66" d="M6.23,0a6.23,6.23,0,1,0,6.23,6.23A6.237,6.237,0,0,0,6.23,0" transform="translate(0 0.515)" fill="#fb9929"/>
      <path id="Path_67" data-name="Path 67" d="M195.477,131.478l-2.6,2.6a.519.519,0,0,1-.734-.734l2.229-2.229-2.229-2.229a.519.519,0,0,1,.734-.734l2.6,2.6a.519.519,0,0,1,0,.734" transform="translate(-187.322 -124.366)" fill="#fff"/>
    </g>
  </g>
</svg>
