<svg version="1.2" xmlns="http://www.w3.org/2000/svg" viewBox="0 0 14 13" width="14" height="13"><style>tspan{white-space:pre}.s0{fill:#ffffff}</style><path class="s0" d="m2.1 13q-0.1 0-0.2 0q-0.2 0-0.3-0.1q-0.1 0-0.2-0.1q-0.1 0-0.2-0.1q-0.2-0.2-0.3-0.4q0-0.2 0-0.5q0-0.2 0-0.5q0.1-0.2 0.3-0.4l10.6-10.5c0.2-0.3 0.5-0.4 0.8-0.4c0.4 0 0.7 0.1 0.9 0.4c0.2 0.2 0.4 0.5 0.4 0.8c0 0.3-0.1 0.6-0.3 0.9l-10.6 10.6q-0.1 0.1-0.2 0.1q-0.1 0.1-0.2 0.1q-0.1 0.1-0.3 0.1q-0.1 0-0.2 0z" /><path class="s0" d="m12.7 13q-0.2 0-0.3 0q-0.1-0.1-0.2-0.1q-0.1-0.1-0.2-0.1q-0.1-0.1-0.2-0.2l-10.6-10.5c-0.2-0.3-0.3-0.6-0.3-0.9c0-0.3 0.2-0.6 0.4-0.8c0.2-0.3 0.5-0.4 0.8-0.4c0.3 0 0.6 0.1 0.9 0.3l10.6 10.6q0.2 0.1 0.3 0.4q0.1 0.2 0.1 0.4q0 0.3-0.1 0.5q-0.1 0.3-0.2 0.4q-0.1 0.1-0.1 0.1q-0.1 0.1-0.2 0.1q-0.1 0.1-0.2 0.1q-0.2 0.1-0.3 0.1q-0.1 0-0.2 0z" /></svg>