<svg xmlns="http://www.w3.org/2000/svg" width="10.983" height="10.857" viewBox="0 0 10.983 10.857">
  <g id="close_1_" data-name="close (1)" transform="translate(0 -1.844)">
    <g id="close_1_2" data-name="close_1_" transform="translate(0.001 1.844)">
      <path id="Path_208" data-name="Path 208" d="M1.04,13.3a1.038,1.038,0,0,1-.737-.25,1.041,1.041,0,0,1,0-1.466L9.12,2.751a1.039,1.039,0,0,1,1.516,1.414L1.767,13.046A1.038,1.038,0,0,1,1.04,13.3Z" transform="translate(-0.001 -2.445)" fill="#fb9929"/>
      <path id="Path_209" data-name="Path 209" d="M11.33,12.7a1.039,1.039,0,0,1-.728-.3L1.778,3.561A1.04,1.04,0,0,1,3.244,2.094l8.876,8.833a1.041,1.041,0,0,1,.048,1.47q-.023.025-.048.048a1.039,1.039,0,0,1-.79.25Z" transform="translate(-1.466 -1.844)" fill="#fb9929"/>
    </g>
  </g>
</svg>
