<svg xmlns="http://www.w3.org/2000/svg" xmlns:xlink="http://www.w3.org/1999/xlink" width="15" height="15" viewBox="0 0 15 15">
  <defs>
    <clipPath id="clip-path">
      <rect id="Rectangle_25" data-name="Rectangle 25" width="15" height="15" transform="translate(0.344 0)" fill="none"/>
    </clipPath>
  </defs>
  <g id="Group_60" data-name="Group 60" transform="translate(-0.344 0)">
    <g id="Group_59" data-name="Group 59" transform="translate(0 0)" clip-path="url(#clip-path)">
      <path id="Path_22" data-name="Path 22" d="M253.929,334.241c-.021,0-.041,0-.062,0v4.426l.062,0a7.415,7.415,0,0,0,5.136-2.059l-3.131-3.131a3,3,0,0,1-2,.766" transform="translate(-246.43 -323.563)" fill="#7b1fa1"/>
      <path id="Path_23" data-name="Path 23" d="M325.952,251.734c0,.041.006.082.006.124a3.007,3.007,0,0,1-1.014,2.252l3.131,3.131a7.419,7.419,0,0,0,2.307-5.384c0-.042,0-.083,0-.124Z" transform="translate(-315.44 -244.199)" fill="#f34336"/>
      <path id="Path_24" data-name="Path 24" d="M253.929,0l-.062,0V4.427c.021,0,.041,0,.062,0a3,3,0,0,1,2.192.951l3.13-3.13A7.414,7.414,0,0,0,253.929,0" transform="translate(-246.43 0.217)" fill="#feea3b"/>
      <path id="Path_25" data-name="Path 25" d="M331.392,80.33a3.008,3.008,0,0,1,.82,1.944h4.427a7.417,7.417,0,0,0-2.117-5.074Z" transform="translate(-321.701 -74.739)" fill="#fe9700"/>
      <path id="Path_26" data-name="Path 26" d="M4.424,251.858c0-.042,0-.083.006-.124H0c0,.041,0,.082,0,.124a7.416,7.416,0,0,0,2.244,5.322l3.13-3.13a3,3,0,0,1-.95-2.192" transform="translate(0.057 -244.199)" fill="#03a8f3"/>
      <path id="Path_27" data-name="Path 27" d="M77.187,334.539a7.417,7.417,0,0,0,5.136,2.118v-4.426a3.007,3.007,0,0,1-2.006-.823Z" transform="translate(-74.886 -321.557)" fill="#3f51b4"/>
      <path id="Path_28" data-name="Path 28" d="M76.173,4.48V.054A7.416,7.416,0,0,0,70.852,2.36l3.132,3.132A3,3,0,0,1,76.173,4.48" transform="translate(-68.735 0.165)" fill="#8ac24a"/>
      <path id="Path_29" data-name="Path 29" d="M257.191,2.244a7.492,7.492,0,0,1,.915,1.145l1.145-1.145A7.414,7.414,0,0,0,253.929,0l-.062,0V.274a7.438,7.438,0,0,1,3.324,1.971" transform="translate(-246.43 0.217)" fill="#fec007"/>
      <path id="Path_30" data-name="Path 30" d="M400.9,82.274h2.06a7.417,7.417,0,0,0-2.117-5.074L399.7,78.345a7.4,7.4,0,0,1,1.2,3.929" transform="translate(-388.019 -74.739)" fill="#f47c00"/>
      <path id="Path_31" data-name="Path 31" d="M398,251.735h-2.06c0,.041,0,.082,0,.124a7.4,7.4,0,0,1-1.354,4.277l1.107,1.107A7.419,7.419,0,0,0,398,251.859c0-.042,0-.083,0-.124" transform="translate(-383.062 -244.2)" fill="#dc2c00"/>
      <path id="Path_32" data-name="Path 32" d="M5.3,82.515,2.165,79.383A7.414,7.414,0,0,0,.108,84.394H4.535A3,3,0,0,1,5.3,82.515" transform="translate(-0.048 -76.858)" fill="#009587"/>
      <path id="Path_33" data-name="Path 33" d="M257,404.229a7.439,7.439,0,0,1-3.138,1.785v.272l.062,0a7.415,7.415,0,0,0,5.136-2.059l-1.107-1.107a7.5,7.5,0,0,1-.953,1.107" transform="translate(-246.43 -391.186)" fill="#6a1b99"/>
      <path id="Path_34" data-name="Path 34" d="M220.85,502.78a7.493,7.493,0,0,0,.96.072v-.272a7.388,7.388,0,0,1-.96.2" transform="translate(-214.373 -487.751)" fill="#303f9e"/>
      <path id="Path_35" data-name="Path 35" d="M221.751.327V.055a7.478,7.478,0,0,0-.962.072,7.386,7.386,0,0,1,.962.2" transform="translate(-214.313 0.164)" fill="#4cae50"/>
    </g>
  </g>
</svg>
