<svg xmlns="http://www.w3.org/2000/svg" width="23.833" height="17.85" viewBox="0 0 23.833 17.85">
  <g id="email_1_" data-name="email (1)" transform="translate(0 -64.266)">
    <path id="Path_236" data-name="Path 236" d="M13.908,178.025a3.585,3.585,0,0,1-3.984,0L.159,171.515C.1,171.478.052,171.441,0,171.4v10.669a2.193,2.193,0,0,0,2.194,2.194H21.639a2.193,2.193,0,0,0,2.194-2.194V171.4c-.052.039-.1.077-.159.113Z" transform="translate(0 -102.149)" fill="#7b7b7b"/>
    <path id="Path_237" data-name="Path 237" d="M.933,68.2,10.7,74.715a2.188,2.188,0,0,0,2.434,0L22.9,68.2a2.091,2.091,0,0,0,.933-1.744,2.2,2.2,0,0,0-2.193-2.193H2.193A2.2,2.2,0,0,0,0,66.46,2.091,2.091,0,0,0,.933,68.2Z" fill="#7b7b7b"/>
  </g>
</svg>
