<svg xmlns="http://www.w3.org/2000/svg" xmlns:xlink="http://www.w3.org/1999/xlink" width="11" height="11" viewBox="0 0 11 11">
  <defs>
    <clipPath id="clip-path">
      <rect id="Rectangle_68" data-name="Rectangle 68" width="11" height="11" transform="translate(-0.029)" fill="none"/>
    </clipPath>
  </defs>
  <g id="Group_200" data-name="Group 200" transform="translate(0.029 0.038)">
    <g id="Group_199" data-name="Group 199" transform="translate(0 -0.038)" clip-path="url(#clip-path)">
      <path id="Path_222" data-name="Path 222" d="M11,205.144a.441.441,0,0,0-.441-.441H7.61a1.759,1.759,0,0,0-3.405,0H.441a.441.441,0,0,0,0,.883H4.2a1.759,1.759,0,0,0,3.405,0h2.948a.441.441,0,0,0,.441-.441" transform="translate(0 -195.871)" fill="#fb9929"/>
      <path id="Path_223" data-name="Path 223" d="M11,103.451a.441.441,0,0,0-.441-.441H5.4a1.759,1.759,0,0,0-3.405,0H.441a.441.441,0,0,0,0,.883H2a1.759,1.759,0,0,0,3.405,0h5.157a.441.441,0,0,0,.441-.441" transform="translate(0 -97.919)" fill="#fb9929"/>
      <path id="Path_224" data-name="Path 224" d="M11,1.759a.441.441,0,0,0-.441-.441H9.153a1.759,1.759,0,0,0-3.405,0H.441a.441.441,0,0,0,0,.883H5.747a1.759,1.759,0,0,0,3.405,0h1.406A.441.441,0,0,0,11,1.759" transform="translate(0 0.032)" fill="#fb9929"/>
    </g>
  </g>
</svg>
