<svg id="locked-padlock" xmlns="http://www.w3.org/2000/svg" width="17.801" height="23.96" viewBox="0 0 17.801 23.96">
  <g id="lock" transform="translate(0)">
    <path id="Path_231" data-name="Path 231" d="M79.326,7.987H78.213V5.7a5.564,5.564,0,1,0-11.125,0V7.987H65.975a2.261,2.261,0,0,0-2.225,2.282V21.678a2.261,2.261,0,0,0,2.225,2.282h13.35a2.261,2.261,0,0,0,2.225-2.282V10.268A2.261,2.261,0,0,0,79.326,7.987ZM72.65,18.255a2.283,2.283,0,1,1,2.225-2.282A2.261,2.261,0,0,1,72.65,18.255ZM76.1,7.987H69.2V5.7a3.45,3.45,0,1,1,6.9,0Z" transform="translate(-63.75 0)" fill="#7b7b7b"/>
  </g>
</svg>
