<svg xmlns="http://www.w3.org/2000/svg" width="57.677" height="40.692" viewBox="0 0 57.677 40.692">
  <g id="quote" transform="translate(-1 -5.415)">
    <path id="Path_202" data-name="Path 202" d="M11.766,31.995a32.6,32.6,0,0,1-5.941,9.382A2.836,2.836,0,0,0,5.556,44.8,2.784,2.784,0,0,0,7.94,46.106a2.346,2.346,0,0,0,.808-.115c5.652-1.653,18.86-7.517,19.226-26.32C28.108,12.423,22.8,6.194,15.9,5.483A13.477,13.477,0,0,0,1,18.9,13.326,13.326,0,0,0,11.766,31.995Z" transform="translate(0 0)" fill="#292c34"/>
    <path id="Path_203" data-name="Path 203" d="M31.851,5.483A13.475,13.475,0,0,0,16.97,18.9,13.326,13.326,0,0,0,27.736,31.995,32.6,32.6,0,0,1,21.8,41.377a2.836,2.836,0,0,0-.269,3.422,2.784,2.784,0,0,0,2.384,1.307,2.346,2.346,0,0,0,.807-.115c5.652-1.653,18.86-7.517,19.226-26.32V19.4A13.841,13.841,0,0,0,31.851,5.483Z" transform="translate(14.733 0)" fill="#292c34"/>
  </g>
</svg>
