<svg version="1.2" baseProfile="tiny-ps" xmlns="http://www.w3.org/2000/svg" viewBox="0 0 30 29" width="30" height="29">
	<title>Search Bar-svg</title>
	<style>
		tspan { white-space:pre }
		.s0 { fill: #fb9929 } 
	</style>
	<g id="Search_Bar">
		<g id="Group_7">
			<g id="Group_6">
				<path id="Path_4" fill-rule="evenodd" class="s0" d="m2.14 13.44c0-4.69 2.82-8.91 7.15-10.71c4.33-1.79 9.32-0.8 12.63 2.51c3.31 3.31 4.31 8.3 2.51 12.63c-1.79 4.33-6.02 7.15-10.71 7.15c-1.52 0-3.03-0.3-4.43-0.88c-1.41-0.58-2.68-1.44-3.76-2.51c-1.08-1.08-1.93-2.35-2.51-3.76c-0.58-1.41-0.88-2.91-0.88-4.43zm8.42 7.65c3.09 1.28 6.65 0.57 9.02-1.79c2.37-2.37 3.08-5.93 1.79-9.02c-1.28-3.09-4.3-5.11-7.65-5.11c-1.09 0-2.16 0.21-3.17 0.63c-1 0.42-1.92 1.03-2.69 1.79c-0.77 0.77-1.38 1.68-1.79 2.69c-0.42 1-0.63 2.08-0.63 3.17c0 3.35 2.02 6.37 5.11 7.65z" />
				<path id="Path_5" class="s0" d="m26.98 28.34c-0.11 0-0.22-0.01-0.32-0.03c-0.11-0.02-0.21-0.05-0.31-0.09c-0.1-0.04-0.2-0.09-0.29-0.15c-0.09-0.06-0.18-0.13-0.25-0.21l-6.23-6.14c-0.32-0.31-0.51-0.74-0.52-1.19c-0.01-0.45 0.16-0.88 0.47-1.2c0.31-0.32 0.74-0.51 1.19-0.52c0.45-0.01 0.88 0.16 1.2 0.47l6.23 6.22l0.01 0.01c0.23 0.23 0.39 0.53 0.45 0.85c0.06 0.32 0.03 0.65-0.1 0.96c-0.13 0.3-0.34 0.56-0.61 0.74c-0.27 0.18-0.59 0.28-0.92 0.27" />
			</g>
		</g>
	</g>
</svg>