<svg xmlns="http://www.w3.org/2000/svg" xmlns:xlink="http://www.w3.org/1999/xlink" width="16.352" height="10.085" viewBox="0 0 16.352 10.085">
  <defs>
    <clipPath id="clip-path">
      <rect id="Rectangle_28" data-name="Rectangle 28" width="16.352" height="10.085" fill="#ff9113"/>
    </clipPath>
  </defs>
  <g id="Group_64" data-name="Group 64" transform="translate(0)">
    <path id="Path_37" data-name="Path 37" d="M292.206,0V.535h.884V9.549h-.884v.536h2.3V9.549h-.884V.535h.884V0Z" transform="translate(-278.157 0)" fill="#ff9113"/>
    <g id="Group_63" data-name="Group 63" transform="translate(0 0)">
      <g id="Group_62" data-name="Group 62" clip-path="url(#clip-path)">
        <path id="Path_38" data-name="Path 38" d="M.1,30.543l2.7-6.087a1.052,1.052,0,0,1,.994-.674h.1a1.037,1.037,0,0,1,.983.674l2.7,6.087a.83.83,0,0,1,.088.342.806.806,0,0,1-.807.818.866.866,0,0,1-.818-.586L5.513,29.9H2.11l-.541,1.27a.836.836,0,0,1-.784.53.783.783,0,0,1-.784-.8.9.9,0,0,1,.1-.365M4.883,28.4,3.811,25.848,2.74,28.4Z" transform="translate(0 -22.639)" fill="#ff9113"/>
        <path id="Path_39" data-name="Path 39" d="M176.011,66.9v-.022c0-1.293.983-1.889,2.386-1.889a4.207,4.207,0,0,1,1.447.243v-.1c0-.7-.431-1.083-1.271-1.083a3.85,3.85,0,0,0-1.16.166.711.711,0,0,1-.243.044.684.684,0,0,1-.7-.685.7.7,0,0,1,.453-.652,5.156,5.156,0,0,1,1.889-.309,2.734,2.734,0,0,1,2,.663,2.581,2.581,0,0,1,.641,1.889v2.7a.806.806,0,0,1-.818.807.752.752,0,0,1-.806-.7v-.011a2.277,2.277,0,0,1-1.79.751,1.832,1.832,0,0,1-2.033-1.812m3.856-.387v-.3A2.6,2.6,0,0,0,178.8,66c-.718,0-1.16.287-1.16.818v.022c0,.453.376.718.917.718.784,0,1.315-.431,1.315-1.038" transform="translate(-167.549 -59.607)" fill="#ff9113"/>
      </g>
    </g>
  </g>
</svg>
