<svg id="tick_1_" data-name="tick (1)" xmlns="http://www.w3.org/2000/svg" width="17" height="17" viewBox="0 0 17 17">
  <g id="Group_265" data-name="Group 265" transform="translate(4.311 5.641)">
    <g id="Group_264" data-name="Group 264">
      <path id="Path_343" data-name="Path 343" d="M131.381,165.568a.655.655,0,0,0-.926-.024l-4.18,3.964-1.994-2.047a.655.655,0,0,0-.938.914l2.444,2.51a.655.655,0,0,0,.92.018l4.649-4.408A.655.655,0,0,0,131.381,165.568Z" transform="translate(-123.158 -165.364)" fill="#fb9929"/>
    </g>
  </g>
  <g id="Group_267" data-name="Group 267">
    <g id="Group_266" data-name="Group 266">
      <path id="Path_344" data-name="Path 344" d="M8.5,0A8.5,8.5,0,1,0,17,8.5,8.51,8.51,0,0,0,8.5,0Zm0,15.622A7.122,7.122,0,1,1,15.622,8.5,7.13,7.13,0,0,1,8.5,15.622Z" fill="#fb9929"/>
    </g>
  </g>
</svg>
