<svg id="Group_55" data-name="Group 55" xmlns="http://www.w3.org/2000/svg" xmlns:xlink="http://www.w3.org/1999/xlink" width="17.522" height="14.239" viewBox="0 0 17.522 14.239">
  <defs>
    <clipPath id="clip-path">
      <rect id="Rectangle_21" data-name="Rectangle 21" width="17.522" height="14.239" fill="none"/>
    </clipPath>
  </defs>
  <g id="Group_54" data-name="Group 54" transform="translate(0)" clip-path="url(#clip-path)">
    <path id="Path_21" data-name="Path 21" d="M15.73,3.546c.007.155.011.311.011.467A10.157,10.157,0,0,1,5.511,14.24,10.169,10.169,0,0,1,0,12.626a7.278,7.278,0,0,0,.858.05,7.216,7.216,0,0,0,4.465-1.539,3.6,3.6,0,0,1-3.359-2.5,3.608,3.608,0,0,0,1.623-.06A3.6,3.6,0,0,1,.7,5.055c0-.015,0-.031,0-.045a3.58,3.58,0,0,0,1.628.449A3.6,3.6,0,0,1,1.22.658,10.208,10.208,0,0,0,8.63,4.416a3.6,3.6,0,0,1,6.126-3.28A7.177,7.177,0,0,0,17.04.263a3.611,3.611,0,0,1-1.583,1.989,7.147,7.147,0,0,0,2.065-.566A7.232,7.232,0,0,1,15.73,3.546Z" transform="translate(0 -0.001)" fill="#fff"/>
  </g>
</svg>
