<svg id="Layer_2" data-name="Layer 2" xmlns="http://www.w3.org/2000/svg" width="23.96" height="23.96" viewBox="0 0 23.96 23.96">
  <path id="Path_227" data-name="Path 227" d="M14.792,14.584a4.792,4.792,0,1,1,4.792-4.792A4.792,4.792,0,0,1,14.792,14.584Zm0-7.986a3.195,3.195,0,1,0,3.195,3.195A3.195,3.195,0,0,0,14.792,6.6Z" transform="translate(-2.803 -1.805)" fill="#7b7b7b"/>
  <path id="Path_228" data-name="Path 228" d="M13.561,28.536a11.979,11.979,0,0,1-9.256-4.384L3.89,23.64l.415-.5a11.979,11.979,0,0,1,18.512,0l.415.5-.415.511A11.979,11.979,0,0,1,13.561,28.536ZM5.982,23.648a10.382,10.382,0,0,0,15.174,0,10.382,10.382,0,0,0-15.174,0Z" transform="translate(-1.573 -4.576)" fill="#7b7b7b"/>
  <path id="Path_229" data-name="Path 229" d="M12.977,24.959a11.979,11.979,0,1,1,9.256-4.384,11.979,11.979,0,0,1-9.256,4.384Zm0-22.362A10.382,10.382,0,1,0,23.359,12.979,10.382,10.382,0,0,0,12.977,2.6Z" transform="translate(-0.989 -0.999)" fill="#7b7b7b"/>
  <path id="Path_230" data-name="Path 230" d="M5.18,23.822s8.042,8.985,16.228.894l1.054-.894S15.626,16.73,8.686,20.987Z" transform="translate(-1.833 -4.75)" fill="#7b7b7b"/>
  <ellipse id="Ellipse_18" data-name="Ellipse 18" cx="3.993" cy="3.993" rx="3.993" ry="3.993" transform="translate(7.995 3.994)" fill="#7b7b7b"/>
</svg>
