<svg id="Group_142" data-name="Group 142" xmlns="http://www.w3.org/2000/svg" xmlns:xlink="http://www.w3.org/1999/xlink" width="117" height="114" viewBox="0 0 117 114">
  <defs>
    <clipPath id="clip-path">
      <rect id="Rectangle_53" data-name="Rectangle 53" width="117" height="114" fill="none"/>
    </clipPath>
    <filter id="Path_204" x="-9" y="-6.611" width="135.713" height="132.488" filterUnits="userSpaceOnUse">
      <feOffset dy="3" input="SourceAlpha"/>
      <feGaussianBlur stdDeviation="3" result="blur"/>
      <feFlood flood-color="#fb9929" flood-opacity="0.302"/>
      <feComposite operator="in" in2="blur"/>
      <feComposite in="SourceGraphic"/>
    </filter>
  </defs>
  <g id="Group_141" data-name="Group 141" transform="translate(0 0)" clip-path="url(#clip-path)">
    <g transform="matrix(1, 0, 0, 1, 0, 0)" filter="url(#Path_204)">
      <path id="Path_204-2" data-name="Path 204" d="M58.856,114.488c32.5,0,58.856-25.629,58.856-57.244S91.361,0,58.856,0,0,25.629,0,57.244s26.351,57.244,58.856,57.244" transform="translate(0 -0.61)" fill="#fff"/>
    </g>
    <path id="Path_205" data-name="Path 205" d="M217.616,166.656a3.947,3.947,0,0,1,0,6.668L185.6,194.083a4.126,4.126,0,0,1-6.405-3.334V149.232A4.126,4.126,0,0,1,185.6,145.9Z" transform="translate(-137.998 -113.357)" fill="#fb9929"/>
  </g>
</svg>
