<svg id="Group_53" data-name="Group 53" xmlns="http://www.w3.org/2000/svg" xmlns:xlink="http://www.w3.org/1999/xlink" width="20.337" height="14.239" viewBox="0 0 20.337 14.239">
  <defs>
    <clipPath id="clip-path">
      <rect id="Rectangle_20" data-name="Rectangle 20" width="20.337" height="14.239" fill="none"/>
    </clipPath>
  </defs>
  <g id="Group_52" data-name="Group 52" clip-path="url(#clip-path)">
    <path id="Path_20" data-name="Path 20" d="M19.918,2.228A2.548,2.548,0,0,0,18.126.436C16.534,0,10.169,0,10.169,0S3.8,0,2.211.419A2.6,2.6,0,0,0,.419,2.228,26.84,26.84,0,0,0,0,7.119a26.739,26.739,0,0,0,.419,4.891A2.548,2.548,0,0,0,2.211,13.8c1.608.435,7.957.435,7.957.435s6.366,0,7.957-.419a2.548,2.548,0,0,0,1.793-1.792,26.858,26.858,0,0,0,.419-4.892,25.491,25.491,0,0,0-.419-4.908M8.142,10.168v-6.1l5.293,3.049Z" fill="#fff"/>
  </g>
</svg>
