<svg xmlns="http://www.w3.org/2000/svg" xmlns:xlink="http://www.w3.org/1999/xlink" width="107.771" height="98.796" viewBox="0 0 107.771 98.796">
  <defs>
    <clipPath id="clip-path">
      <rect id="Rectangle_107" data-name="Rectangle 107" width="107.771" height="98.796" fill="#40434d"/>
    </clipPath>
  </defs>
  <g id="Group_252" data-name="Group 252" opacity="0.5">
    <g id="Group_251" data-name="Group 251" clip-path="url(#clip-path)">
      <path id="Path_323" data-name="Path 323" d="M53.887,98.8a2.257,2.257,0,0,1-1.72-.8L.528,36.668a2.245,2.245,0,0,1-.251-2.524L18.382,1.18A2.249,2.249,0,0,1,20.348.013H87.426A2.238,2.238,0,0,1,89.393,1.18l18.1,32.964a2.237,2.237,0,0,1-.252,2.524L55.6,98a2.241,2.241,0,0,1-1.715.8M4.96,34.953,53.887,93.072l48.928-58.119L86.1,4.5H21.678Z" transform="translate(0 -0.007)" fill="#40434d"/>
      <path id="Path_324" data-name="Path 324" d="M105.529,71.86H4.494a2.245,2.245,0,1,1,0-4.49H105.529a2.245,2.245,0,0,1,0,4.49" transform="translate(-1.125 -33.685)" fill="#40434d"/>
      <path id="Path_325" data-name="Path 325" d="M105.807,36.92a2.235,2.235,0,0,1-1.837-.957L83.085,6.178,62.465,35.806a2.244,2.244,0,1,1-3.682-2.564L81.235.974A2.237,2.237,0,0,1,83.072.013h0a2.239,2.239,0,0,1,1.836.956l22.731,32.416a2.246,2.246,0,0,1-1.837,3.534Z" transform="translate(-29.189 -0.007)" fill="#40434d"/>
      <path id="Path_326" data-name="Path 326" d="M71.991,98.8a2.243,2.243,0,0,1-2.115-1.491L36.337,3.006A2.249,2.249,0,0,1,37.7.137,2.229,2.229,0,0,1,40.567,1.5L71.991,89.851,103.415,1.5a2.245,2.245,0,0,1,4.23,1.508l-33.539,94.3A2.243,2.243,0,0,1,71.991,98.8Z" transform="translate(-18.104 0)" fill="#40434d"/>
    </g>
  </g>
</svg>
