<svg xmlns="http://www.w3.org/2000/svg" xmlns:xlink="http://www.w3.org/1999/xlink" width="91.339" height="99.729" viewBox="0 0 91.339 99.729">
  <defs>
    <clipPath id="clip-path">
      <rect id="Rectangle_108" data-name="Rectangle 108" width="91.339" height="99.729" fill="#40434d"/>
    </clipPath>
  </defs>
  <g id="Group_254" data-name="Group 254" opacity="0.5">
    <g id="Group_253" data-name="Group 253" clip-path="url(#clip-path)">
      <path id="Path_327" data-name="Path 327" d="M81.712,41.224h-.247V35.177a35.177,35.177,0,0,0-70.353,0v6.048H9.631C4.2,41.224,0,46.038,0,51.593V67.021a9.751,9.751,0,0,0,9.5,10l.127,0h9.133A2.345,2.345,0,0,0,21,74.566c0-.047-.006-.093-.011-.14V44.187c0-1.481-.864-2.962-2.222-2.962H16.048V35.177a30.24,30.24,0,0,1,60.48,0v6.048H73.812c-1.358,0-2.222,1.481-2.222,2.962V74.426a2.345,2.345,0,0,0,2.082,2.581c.046.005.093.008.14.011h2.839l-.247.37a19.5,19.5,0,0,1-15.675,7.776,12.219,12.219,0,0,0-24.191,2.345A12.342,12.342,0,0,0,48.88,99.729,12.712,12.712,0,0,0,57.767,95.9a10.863,10.863,0,0,0,2.962-5.925,24.438,24.438,0,0,0,19.625-9.751L82.7,76.771c5.307-.37,8.64-3.7,8.64-8.516V52.826c0-5.307-3.949-11.6-9.627-11.6M16.048,72.081H9.631a4.813,4.813,0,0,1-4.7-4.929c0-.043,0-.087,0-.131V51.592c0-2.839,1.975-5.43,4.69-5.43h6.418ZM54.188,92.446a7.282,7.282,0,0,1-5.307,2.345,7.529,7.529,0,0,1-7.406-7.282A7.282,7.282,0,1,1,56.039,87.5v.006a6.542,6.542,0,0,1-1.851,4.937M86.4,68.255c0,3.332-3.209,3.826-4.69,3.826H76.528V46.162h5.184c2.715,0,4.69,3.826,4.69,6.665Z" transform="translate(0)" fill="#40434d"/>
    </g>
  </g>
</svg>
