<svg xmlns="http://www.w3.org/2000/svg" xmlns:xlink="http://www.w3.org/1999/xlink" width="90.079" height="99.729" viewBox="0 0 90.079 99.729">
  <defs>
    <clipPath id="clip-path">
      <rect id="Rectangle_109" data-name="Rectangle 109" width="90.079" height="99.729" fill="#40434d"/>
    </clipPath>
  </defs>
  <g id="Group_256" data-name="Group 256" opacity="0.5">
    <g id="Group_255" data-name="Group 255" clip-path="url(#clip-path)">
      <path id="Path_328" data-name="Path 328" d="M1.609,99.729h12.87a1.609,1.609,0,0,0,1.607-1.7L16,96.512h4.917a1.608,1.608,0,0,0,1.6-1.723l-.061-.849,1.743-.582a35.49,35.49,0,0,1,18.113-.9,43.007,43.007,0,0,0,8.437.836A38.065,38.065,0,0,0,75.668,84L88,73.312a6.006,6.006,0,0,0-3.56-10.541,41.82,41.82,0,1,0-66.337,8H14.481l0-.095a1.612,1.612,0,0,0-1.607-1.514H1.61A1.607,1.607,0,0,0,0,70.776V98.121a1.609,1.609,0,0,0,1.609,1.608m85.253-30.97a2.8,2.8,0,0,1-.971,2.122L73.559,81.569a34.835,34.835,0,0,1-22.811,8.509,39.947,39.947,0,0,1-7.806-.772,38.685,38.685,0,0,0-19.762,1l-.962.32L21.067,74.5l2.517-2.517a15.026,15.026,0,0,1,10.692-4.428,20.777,20.777,0,0,1,7.755,1.494,23.991,23.991,0,0,0,8.948,1.723h6.93A6.426,6.426,0,0,1,64.114,75.6H48.257v3.217H65.951a1.607,1.607,0,0,0,1.005-.352l14.873-11.9a2.82,2.82,0,0,1,1.756-.616h.468A2.811,2.811,0,0,1,86.862,68.759ZM16.169,40.214a32,32,0,0,1,8.268-19.937l3.346,3.345,2.274-2.274L26.711,18A31.986,31.986,0,0,1,46.649,9.734v4.744h3.217V9.734A31.983,31.983,0,0,1,69.8,18l-3.347,3.347,2.275,2.275,3.347-3.347a31.987,31.987,0,0,1,8.269,19.937H75.6v3.217h4.771a32.057,32.057,0,0,1-8.256,19.976l-3.386-3.386L66.456,62.3l3.381,3.381A32.256,32.256,0,0,1,64.1,69.811a9.6,9.6,0,0,0-6.185-2.252H50.98a20.768,20.768,0,0,1-7.755-1.494,24.038,24.038,0,0,0-6.092-1.534L47.4,46.561a4.779,4.779,0,0,0,.854.087,4.814,4.814,0,0,0,1.609-9.355V22.518H46.649V37.293a4.774,4.774,0,0,0-2.033,7.66L33.993,63.544l1.5.855c-.405-.021-.807-.058-1.214-.058a18.28,18.28,0,0,0-7.354,1.544c-.08-.071-.162-.142-.241-.212L30.059,62.3l-2.275-2.275L24.408,63.4a32.063,32.063,0,0,1-8.276-19.967h4.781V40.214Zm32.088,0a1.609,1.609,0,1,1-1.609,1.609,1.609,1.609,0,0,1,1.609-1.609m0-37A38.6,38.6,0,0,1,79.8,64.067L67.087,74.241a9.6,9.6,0,0,0-.88-1.933,35.383,35.383,0,1,0-42.259-4.776,18.524,18.524,0,0,0-2.5,2.054A38.594,38.594,0,0,1,48.257,3.218M17.807,73.993l1.376,19.3H15.8l-1.134-19.3ZM3.219,72.384h8.134l1.42,24.128H3.217Z" transform="translate(0 -0.001)" fill="#40434d"/>
    </g>
  </g>
</svg>
