<svg id="Group_262" data-name="Group 262" xmlns="http://www.w3.org/2000/svg" xmlns:xlink="http://www.w3.org/1999/xlink" width="98.481" height="98.482" viewBox="0 0 98.481 98.482">
  <defs>
    <clipPath id="clip-path">
      <rect id="Rectangle_113" data-name="Rectangle 113" width="98.481" height="98.482" fill="#40434d"/>
    </clipPath>
  </defs>
  <g id="Group_261" data-name="Group 261" clip-path="url(#clip-path)">
    <path id="Path_341" data-name="Path 341" d="M93.836,82.84a10.985,10.985,0,1,0-3.22,7.773,10.923,10.923,0,0,0,3.22-7.773M77.109,88.572a8.109,8.109,0,1,1,11.467,0,8.054,8.054,0,0,1-11.467,0" transform="translate(-33.604 -33.602)" fill="#40434d"/>
    <path id="Path_342" data-name="Path 342" d="M97.44,16.566a30.854,30.854,0,0,0-6.482-9.044,30.858,30.858,0,0,0-9.043-6.481c-3.275-1.42-5.926-1.385-7.488.087-.022.018-.043.037-.063.056l-.022.02c-.01.01-.018.022-.029.031s-.021.021-.03.032l-.178.2c-.012.014-.026.027-.038.042L60.208,17.1c-.529.6-1.261,1.711-.664,2.239a1.437,1.437,0,0,0,.956.363c.4,0,.978.311,1.263-.011L73.424,6.588A14.112,14.112,0,0,0,74.107,8.6a.155.155,0,0,0,.007.018c0,.01.008.019.012.028.019.044.034.086.053.129.053.122.11.246.167.369l.021.045c.077.168.159.337.243.507.011.02.02.041.03.061q.122.244.253.489l.046.087c.083.153.168.308.256.462.023.04.044.079.067.119q.123.215.253.429c.031.051.061.1.092.155.08.131.162.261.245.392.042.064.081.129.123.194.076.118.155.237.234.355.051.078.1.155.154.232.073.106.147.213.222.319.062.088.123.177.186.266s.139.193.21.289.142.2.216.295l.2.265c.08.105.159.21.241.315.066.084.134.168.2.252.087.109.171.217.26.325l.21.253c.088.106.177.213.267.32l.241.277c.085.1.168.194.253.291.1.113.2.224.3.336.068.076.136.152.205.227.151.163.3.325.458.487l.069.073q.271.281.548.559c.185.185.372.367.558.548l.088.083c.157.15.314.3.471.444.077.071.155.141.232.21.111.1.221.2.332.3s.2.17.294.256.182.16.274.238l.317.264c.086.071.17.144.256.213.106.087.212.17.318.255l.259.207c.1.08.2.157.307.235s.183.141.274.209.191.14.285.21l.3.217c.085.061.17.119.255.178l.331.23c.073.05.146.1.219.145.122.082.245.164.367.243.06.039.12.076.18.114.135.086.27.171.406.253l.144.086c.147.089.294.177.441.261l.107.06c.158.089.317.178.475.263l.073.038q.252.135.5.26l.049.024q.261.13.52.249l.033.016c.127.057.253.117.377.17l.135.056.022.01.014.005a14.036,14.036,0,0,0,2.018.685l-25.953,23c-.039-.067-.079-.134-.121-.2a3.041,3.041,0,0,1-.385-2.431,5.921,5.921,0,0,0-3.592-7.05A3.047,3.047,0,0,1,60.1,36.634a5.921,5.921,0,0,0-7.051-3.592,3.049,3.049,0,0,1-2.432-.385c-.063-.042-.128-.08-.192-.117L62.809,18.567a1.443,1.443,0,1,0-2.159-1.914L47.31,31.707A5.915,5.915,0,0,0,42.8,33.895a3.047,3.047,0,0,1-2.193,1.118,5.919,5.919,0,0,0-5.6,5.6A3.043,3.043,0,0,1,33.9,42.8a5.916,5.916,0,0,0-2.188,4.507L1.27,74.28c-.022.02-.043.039-.063.06-1.551,1.55-1.609,4.24-.164,7.573a30.872,30.872,0,0,0,6.482,9.043,30.858,30.858,0,0,0,9.043,6.481,11.1,11.1,0,0,0,4.312,1.044,4.443,4.443,0,0,0,3.261-1.207c.02-.02.04-.042.059-.063L34.391,85.68c.529-.6-1.059-.146-1.654-.674s.153-1.952-.376-1.356L22.077,95.257c-1.135,1.045-6.366-.195-12.512-6.341C3.847,83.2,2,77.717,3.223,76.4L32.541,50.425c.037.064.077.128.117.192a3.048,3.048,0,0,1,.385,2.431A5.919,5.919,0,0,0,36.636,60.1a3.05,3.05,0,0,1,1.741,1.741,5.919,5.919,0,0,0,7.05,3.592,3.049,3.049,0,0,1,2.432.386c.066.042.134.079.2.119l-16.2,18.276a1.443,1.443,0,1,0,2.16,1.914l14.9-16.814,3.051,9.9a2.032,2.032,0,0,0,3.474.737l3.867-4.436,5.2,1.558a2.033,2.033,0,0,0,2.524-2.546l-3.333-10.82,10.82,3.333a2.033,2.033,0,0,0,2.546-2.525l-1.557-5.2,4.436-3.866a2.032,2.032,0,0,0-.737-3.475l-9.9-3.05L97.213,24.2c.012-.01.023-.022.034-.033l.029-.026.02-.022c.019-.02.039-.042.057-.063,1.472-1.562,1.506-4.213.087-7.488m-46.685,47.3-.034,0a3.041,3.041,0,0,1-1.3-.467,5.941,5.941,0,0,0-4.739-.751A3.038,3.038,0,0,1,41.068,60.8a5.937,5.937,0,0,0-3.392-3.393,3.038,3.038,0,0,1-1.843-3.618,5.938,5.938,0,0,0-.751-4.739,3.037,3.037,0,0,1-.466-1.287l0-.043a3.037,3.037,0,0,1,1.105-2.681A5.937,5.937,0,0,0,37.9,40.764a3.038,3.038,0,0,1,2.871-2.871,5.937,5.937,0,0,0,4.275-2.178,3.037,3.037,0,0,1,2.69-1.106l.036,0a3.032,3.032,0,0,1,1.285.465,5.939,5.939,0,0,0,4.739.751,3.036,3.036,0,0,1,3.618,1.843A5.945,5.945,0,0,0,60.8,41.066a3.038,3.038,0,0,1,1.844,3.618,5.935,5.935,0,0,0,.751,4.739,3.029,3.029,0,0,1,.466,1.3c0,.011,0,.022,0,.034a3.034,3.034,0,0,1-1.106,2.68,5.9,5.9,0,0,0-.964,1,1.4,1.4,0,0,0-.092.121,5.932,5.932,0,0,0-1.123,3.157,3.032,3.032,0,0,1-.557,1.6,1.2,1.2,0,0,0-.08.106,3.056,3.056,0,0,1-.535.533c-.035.024-.07.051-.1.079a3.028,3.028,0,0,1-1.6.557,5.946,5.946,0,0,0-3.129,1.1,1.363,1.363,0,0,0-.131.1,5.9,5.9,0,0,0-1.015.978,3.036,3.036,0,0,1-2.681,1.105M54.281,76.9,51.165,66.783l.016-.018a5.92,5.92,0,0,0,3.508-1.227L57.161,73.6Zm9.532-3.051L59.9,72.677,57.114,63.6a3,3,0,0,1,.754-.142,5.935,5.935,0,0,0,2.524-.719ZM62.745,60.39a5.908,5.908,0,0,0,.719-2.524,3.035,3.035,0,0,1,.148-.772l9.068,2.8,1.173,3.919ZM76.9,54.279l-3.3,2.879-8.048-2.484a5.919,5.919,0,0,0,1.217-3.5l.016-.014ZM83.464,16.52l-.037-.034q-.133-.125-.264-.253c-.154-.149-.308-.3-.463-.453s-.285-.289-.426-.434l-.187-.2c-.065-.068-.129-.136-.194-.205a30.725,30.725,0,0,1-4.01-5.264,18.5,18.5,0,0,1,6.456,4.461A18.478,18.478,0,0,1,88.8,20.6a30.827,30.827,0,0,1-5.336-4.077m11.784,5.566-.077.068c-.487.395-1.611.425-3.177-.073-.035-3.035-2.665-7.029-5.614-9.979s-6.95-5.583-9.985-5.613c-.474-1.473-.506-2.655-.06-3.184l.063-.071a1.715,1.715,0,0,1,1.2-.353,8.516,8.516,0,0,1,3.173.809,27.961,27.961,0,0,1,8.15,5.875c6.167,6.167,7.394,11.412,6.329,12.522" transform="translate(0 0)" fill="#40434d"/>
  </g>
</svg>
