<svg id="Group_258" data-name="Group 258" xmlns="http://www.w3.org/2000/svg" xmlns:xlink="http://www.w3.org/1999/xlink" width="99.002" height="99.002" viewBox="0 0 99.002 99.002">
  <defs>
    <clipPath id="clip-path">
      <rect id="Rectangle_110" data-name="Rectangle 110" width="99.002" height="99.002" fill="#40434d"/>
    </clipPath>
  </defs>
  <g id="Group_257" data-name="Group 257" clip-path="url(#clip-path)">
    <path id="Path_329" data-name="Path 329" d="M85.8,57.751V18.15a4.95,4.95,0,0,0-4.95-4.95H79.2V11.55a4.95,4.95,0,0,0-4.95-4.95H72.6V4.95A4.95,4.95,0,0,0,67.651,0H4.95A4.95,4.95,0,0,0,0,4.95v62.7A4.95,4.95,0,0,0,4.95,72.6H6.6v1.65a4.95,4.95,0,0,0,4.95,4.95H13.2v1.65a4.95,4.95,0,0,0,4.95,4.95h39.6A21.45,21.45,0,1,0,85.8,57.751M4.95,69.3a1.65,1.65,0,0,1-1.65-1.65V4.95A1.65,1.65,0,0,1,4.95,3.3h62.7A1.65,1.65,0,0,1,69.3,4.95V6.6H11.55A4.95,4.95,0,0,0,6.6,11.55V69.3Zm6.6,6.6a1.65,1.65,0,0,1-1.65-1.65V11.55A1.65,1.65,0,0,1,11.55,9.9h62.7a1.65,1.65,0,0,1,1.65,1.65V13.2H18.15a4.95,4.95,0,0,0-4.95,4.95V75.9Zm6.6,6.6a1.65,1.65,0,0,1-1.65-1.65V18.15a1.65,1.65,0,0,1,1.65-1.65h62.7a1.65,1.65,0,0,1,1.65,1.65V56.7A21.376,21.376,0,0,0,56.7,82.5H18.15Zm59.4,13.2A18.15,18.15,0,1,1,95.7,77.551,18.15,18.15,0,0,1,77.551,95.7" fill="#40434d"/>
    <path id="Path_330" data-name="Path 330" d="M99.081,72.705V59.5a3.3,3.3,0,0,0-3.3-3.3H46.28a3.3,3.3,0,0,0-3.3,3.3v13.2a3.3,3.3,0,0,0,3.3,3.3h49.5a3.3,3.3,0,0,0,3.3-3.3M46.28,59.5h49.5v13.2H46.28Z" transform="translate(-21.53 -28.155)" fill="#40434d"/>
    <path id="Path_331" data-name="Path 331" d="M99.136,104.142a1.65,1.65,0,0,0-1.65-1.65h-23.1a1.65,1.65,0,1,0,0,3.3h23.1a1.65,1.65,0,0,0,1.65-1.65" transform="translate(-36.436 -51.341)" fill="#40434d"/>
    <path id="Path_332" data-name="Path 332" d="M99.155,117.367a1.65,1.65,0,0,0-1.65-1.65H84.3a1.65,1.65,0,0,0,0,3.3h13.2a1.65,1.65,0,0,0,1.65-1.65" transform="translate(-41.404 -57.966)" fill="#40434d"/>
    <path id="Path_333" data-name="Path 333" d="M154.049,143.55h-7.873v-7.873a1.312,1.312,0,1,0-2.624,0v7.873h-7.873a1.312,1.312,0,1,0,0,2.624h7.873v7.873a1.312,1.312,0,1,0,2.624,0v-7.873h7.873a1.312,1.312,0,0,0,0-2.624" transform="translate(-67.308 -67.308)" fill="#40434d"/>
  </g>
</svg>
