<svg id="Group_260" data-name="Group 260" xmlns="http://www.w3.org/2000/svg" xmlns:xlink="http://www.w3.org/1999/xlink" width="99" height="99" viewBox="0 0 99 99">
  <defs>
    <clipPath id="clip-path">
      <rect id="Rectangle_112" data-name="Rectangle 112" width="99" height="99" fill="#40434d"/>
    </clipPath>
  </defs>
  <g id="Group_259" data-name="Group 259" clip-path="url(#clip-path)">
    <path id="Path_334" data-name="Path 334" d="M167.3,139.853l-1.612-1.612a1.891,1.891,0,0,0-2.671,0l-.631.631,4.283,4.284.631-.631a1.888,1.888,0,0,0,0-2.671" transform="translate(-81.347 -68.974)" fill="#40434d"/>
    <path id="Path_335" data-name="Path 335" d="M138.465,163.917,137.709,168a.521.521,0,0,0,.607.607l4.083-.756Z" transform="translate(-68.98 -82.113)" fill="#40434d"/>
    <path id="Path_340" data-name="Path 340" d="M0,0H14.506V6.058H0Z" transform="translate(70.048 80.893) rotate(-45.003)" fill="#40434d"/>
    <path id="Path_336" data-name="Path 336" d="M85.8,57.75V18.15a4.95,4.95,0,0,0-4.95-4.95H79.2V11.55a4.95,4.95,0,0,0-4.95-4.95H72.6V4.95A4.95,4.95,0,0,0,67.65,0H4.95A4.95,4.95,0,0,0,0,4.95v62.7A4.95,4.95,0,0,0,4.95,72.6H6.6v1.65a4.95,4.95,0,0,0,4.95,4.95H13.2v1.65a4.95,4.95,0,0,0,4.95,4.95h39.6A21.45,21.45,0,1,0,85.8,57.75M4.95,69.3A1.65,1.65,0,0,1,3.3,67.65V4.95A1.65,1.65,0,0,1,4.95,3.3h62.7A1.65,1.65,0,0,1,69.3,4.95V6.6H11.55A4.95,4.95,0,0,0,6.6,11.55V69.3Zm6.6,6.6A1.65,1.65,0,0,1,9.9,74.25V11.55A1.65,1.65,0,0,1,11.55,9.9h62.7a1.65,1.65,0,0,1,1.65,1.65V13.2H18.15a4.95,4.95,0,0,0-4.95,4.95V75.9Zm6.6,6.6a1.65,1.65,0,0,1-1.65-1.65V18.15a1.65,1.65,0,0,1,1.65-1.65h62.7a1.65,1.65,0,0,1,1.65,1.65V56.7A21.375,21.375,0,0,0,56.7,82.5H18.15Zm59.4,13.2A18.15,18.15,0,1,1,95.7,77.549,18.15,18.15,0,0,1,77.549,95.7" fill="#40434d"/>
    <path id="Path_337" data-name="Path 337" d="M99.08,72.7V59.5a3.3,3.3,0,0,0-3.3-3.3H46.28a3.3,3.3,0,0,0-3.3,3.3V72.7a3.3,3.3,0,0,0,3.3,3.3h49.5a3.3,3.3,0,0,0,3.3-3.3M46.28,59.5h49.5V72.7H46.28Z" transform="translate(-21.53 -28.155)" fill="#40434d"/>
    <path id="Path_338" data-name="Path 338" d="M99.136,104.142a1.65,1.65,0,0,0-1.65-1.65h-23.1a1.65,1.65,0,0,0,0,3.3h23.1a1.65,1.65,0,0,0,1.65-1.65" transform="translate(-36.436 -51.342)" fill="#40434d"/>
    <path id="Path_339" data-name="Path 339" d="M99.155,117.367a1.65,1.65,0,0,0-1.65-1.65H84.3a1.65,1.65,0,1,0,0,3.3h13.2a1.65,1.65,0,0,0,1.65-1.65" transform="translate(-41.405 -57.967)" fill="#40434d"/>
  </g>
</svg>
